<?xml version="1.0" encoding="UTF-8"?>
<svg id="Camada_1" data-name="Camada 1" xmlns="http://www.w3.org/2000/svg" xmlns:xlink="http://www.w3.org/1999/xlink" viewBox="0 0 1024 152">
  <defs>
    <style>
      .cls-1 {
        fill: #fff;
      }

      .cls-2 {
        fill: none;
      }

      .cls-3 {
        fill: #fb1366;
      }

      .cls-4 {
        fill: #f78b1f;
      }

      .cls-5 {
        fill: #e7316a;
      }

      .cls-6 {
        fill: #34efda;
      }

      .cls-7 {
        clip-path: url(#clippath);
      }
    </style>
    <clipPath id="clippath">
      <rect class="cls-2" y="0" width="1024" height="152"/>
    </clipPath>
  </defs>
  <g class="cls-7">
    <rect class="cls-6" x="-1.73" y="-1.55" width="1028.35" height="155.02"/>
    <path class="cls-3" d="M89.93,128.79c6.19-4.01,9.35-11.26,9.16-21-.24-12.26-3.56-27.09-8.82-41.27,5.86.66,11.48.51,16.34-.72,5.88-1.49,10.08-4.42,12.49-8.71,5.46-9.7.63-30.12-14.77-62.41-12.13-25.44-27.54-50.96-33.3-60.27,6.24.32,18.13.4,29.43-2.47,15.8-4.01,25.05-12.62,26.74-24.91,2.18-15.8-7.43-29.31-27.79-39.12-14.95-7.2-30.24-9.86-30.89-9.97-1.19-.2-2.33.6-2.53,1.79-.21,1.2.6,2.33,1.79,2.53.59.1,58.63,10.41,55.18,43.25-.03.3-.07.61-.11.91-1.45,10.52-9.35,17.68-23.47,21.26-15.18,3.85-32.09,2.05-32.26,2.03-.84-.09-1.66.3-2.1,1.02-.45.72-.44,1.63.01,2.34.2.32,20.31,31.97,35.34,63.49,18.1,37.97,18.1,52.7,14.9,58.37-1.8,3.2-5.08,5.42-9.75,6.61-4.72,1.2-10.66,1.25-17.06.34-4.45-11-10.03-21.39-16.17-29.61-7.52-10.06-16.88-16.05-25.04-16.01-4.69.02-8.65,2.04-11.46,5.86-1.94,2.63-2.59,5.68-1.95,9.06,1.61,8.44,11.31,17.17,19.85,22.53,8.43,5.29,20.2,10.01,31.62,12.08,5.57,14.37,9.13,29.61,9.37,42.08.16,8.14-2.31,14.09-7.16,17.23-6.99,4.53-18.69,3.32-32.92-3.41-22.11-10.45-47.78-32.73-73.71-63.51l-.63,6.01c25.44,29.63,50.61,51.14,72.46,61.47,15.66,7.4,28.87,8.51,37.18,3.12ZM56.04,50c-9.75-6.12-16.76-13.82-17.87-19.63-.41-2.16-.03-4.01,1.17-5.64,1.98-2.69,4.65-4.06,7.94-4.07,6.68-.03,14.92,5.44,21.51,14.25,5.46,7.31,10.46,16.39,14.58,26.07-9.29-1.99-19.1-5.81-27.33-10.97Z"/>
    <g>
      <path class="cls-4" d="M60.89,126.69c-1.4,1.11-2.24,2.47-2.21,3.55.02.53.25.96.7,1.27.27.19.57.24.92.16.94-.21,2.15-1.38,3.1-2.99.8-1.36,1.37-2.97,1.65-4.48-1.55.71-3,1.57-4.15,2.49Z"/>
      <g>
        <path class="cls-4" d="M64.01,129.04c-.83,1.41-2.2,3.02-3.55,3.32-.54.12-1.04.03-1.48-.27-.63-.44-.98-1.07-1-1.83-.04-1.32.88-2.87,2.47-4.13,1.3-1.03,2.96-1.99,4.72-2.76.12-1.04.08-2-.14-2.76-.21-.75-.59-1.27-1.12-1.55-.93-.49-3.32-.42-9.39,2.7-5.03,2.59-10.07,6-10.12,6.03-.11.08-.26.08-.38.01-.12-.07-.19-.2-.18-.34,0-.03.21-2.78-.48-5.22-.51-1.8-1.37-2.95-2.56-3.45-.04.09-.08.18-.11.27-2.94,7.29.59,15.58,7.87,18.52,7.29,2.94,15.58-.59,18.52-7.87.89-2.2,1.18-4.48.97-6.68-.75.24-1.51.52-2.25.83-.28,1.86-.99,3.79-1.8,5.18Z"/>
        <path class="cls-4" d="M44.06,122.05c.52,1.82.56,3.74.54,4.76,1.48-.98,5.54-3.6,9.6-5.68,5.16-2.65,8.44-3.53,10.04-2.69.71.37,1.2,1.04,1.47,1.98.22.78.27,1.69.2,2.64.68-.28,1.38-.52,2.07-.74-.72-4.83-3.9-9.16-8.76-11.12-6.98-2.81-14.87.3-18.11,6.96,1.37.58,2.38,1.91,2.95,3.9Z"/>
        <path class="cls-6" d="M65.91,123.06c.08-.95.03-1.86-.2-2.64-.27-.94-.77-1.61-1.47-1.98-1.6-.84-4.88.04-10.04,2.69-4.06,2.09-8.12,4.71-9.6,5.68.02-1.01-.02-2.94-.54-4.76-.57-1.99-1.58-3.32-2.95-3.9-.1.21-.2.43-.3.65,1.19.49,2.04,1.65,2.56,3.45.7,2.44.49,5.19.48,5.22-.01.14.06.27.18.34.12.07.27.06.38-.01.05-.03,5.08-3.44,10.12-6.03,6.06-3.12,8.45-3.19,9.39-2.7.53.28.9.8,1.12,1.55.22.76.25,1.72.14,2.76-1.76.77-3.42,1.73-4.72,2.76-1.59,1.27-2.52,2.81-2.47,4.13.03.76.37,1.39,1,1.83.44.3.93.39,1.48.27,1.36-.3,2.73-1.91,3.55-3.32.82-1.39,1.52-3.32,1.8-5.18.74-.31,1.5-.59,2.25-.83-.02-.24-.05-.48-.09-.71-.69.22-1.38.46-2.07.74ZM63.4,128.68c-.94,1.61-2.16,2.78-3.1,2.99-.35.08-.65.02-.92-.16-.45-.31-.68-.73-.7-1.27-.04-1.08.81-2.44,2.21-3.55,1.16-.92,2.6-1.77,4.15-2.49-.28,1.51-.85,3.12-1.65,4.48Z"/>
      </g>
    </g>
    <g>
      <path d="M218.72,41.25c-1.13,1.09-2.86,1.64-5.18,1.64h-3.82v8.3h-2.59v-19.88h6.42c2.24,0,3.95.54,5.12,1.63s1.75,2.48,1.75,4.19-.57,3.03-1.7,4.12ZM216.73,39.81c.68-.63,1.03-1.52,1.03-2.68,0-2.45-1.41-3.68-4.22-3.68h-3.82v7.3h3.82c1.44,0,2.51-.31,3.19-.94Z"/>
      <path d="M237.81,44.35h-12.49c.1,1.54.62,2.74,1.58,3.61.96.87,2.12,1.3,3.49,1.3,1.12,0,2.06-.26,2.81-.78.75-.52,1.28-1.22,1.58-2.1h2.79c-.42,1.5-1.25,2.72-2.51,3.66-1.25.94-2.81,1.41-4.68,1.41-1.48,0-2.81-.33-3.98-1-1.17-.67-2.09-1.61-2.75-2.84-.67-1.23-1-2.65-1-4.26s.32-3.03.97-4.25c.65-1.22,1.55-2.15,2.72-2.81,1.17-.66,2.51-.98,4.03-.98s2.79.32,3.94.97,2.02,1.54,2.64,2.67c.62,1.13.93,2.41.93,3.83,0,.49-.03,1.02-.09,1.57ZM234.56,39.69c-.44-.71-1.03-1.25-1.78-1.63-.75-.37-1.58-.56-2.49-.56-1.31,0-2.43.42-3.35,1.25-.92.84-1.45,2-1.58,3.48h9.87c0-.99-.22-1.84-.66-2.55Z"/>
      <path d="M243.62,50.83c-.95-.41-1.7-.98-2.25-1.71-.55-.73-.85-1.57-.91-2.52h2.68c.08.78.44,1.42,1.1,1.91.66.49,1.52.74,2.58.74.99,0,1.77-.22,2.34-.66.57-.44.86-.99.86-1.65s-.3-1.19-.91-1.53c-.61-.33-1.55-.66-2.82-.98-1.16-.3-2.11-.61-2.84-.93-.73-.31-1.36-.78-1.88-1.4-.52-.62-.78-1.43-.78-2.44,0-.8.24-1.53.71-2.2.48-.67,1.15-1.19,2.02-1.58.87-.39,1.87-.58,2.99-.58,1.73,0,3.13.44,4.19,1.31,1.06.88,1.63,2.07,1.71,3.59h-2.6c-.06-.82-.38-1.47-.98-1.97-.6-.49-1.4-.74-2.41-.74-.93,0-1.67.2-2.22.6-.55.4-.83.92-.83,1.57,0,.51.17.94.5,1.27s.75.6,1.25.8c.5.2,1.2.42,2.1.67,1.12.3,2.03.6,2.74.9.7.29,1.31.74,1.81,1.33.5.59.76,1.36.78,2.31,0,.86-.24,1.62-.71,2.31-.48.68-1.15,1.22-2.01,1.61-.87.39-1.86.58-2.98.58-1.2,0-2.27-.2-3.22-.61Z"/>
      <path d="M256.2,39.11c.65-1.21,1.53-2.14,2.67-2.81,1.13-.67,2.4-1,3.81-1s2.53.3,3.55.9c1.02.6,1.76,1.34,2.24,2.21v-2.85h2.62v23.04h-2.62v-10.29c-.49.87-1.25,1.62-2.28,2.22-1.03.61-2.22.91-3.59.91s-2.61-.34-3.74-1.03c-1.12-.68-2.01-1.64-2.65-2.88-.65-1.24-.97-2.64-.97-4.22s.32-3,.97-4.21ZM267.75,40.27c-.48-.87-1.12-1.54-1.92-2.01-.81-.47-1.7-.7-2.67-.7s-1.85.23-2.65.68-1.44,1.12-1.91,2c-.48.87-.71,1.9-.71,3.08s.24,2.24.71,3.12c.48.88,1.11,1.56,1.91,2.02s1.68.7,2.65.7,1.86-.23,2.67-.7,1.45-1.14,1.92-2.02c.48-.88.71-1.92.71-3.09s-.24-2.2-.71-3.08Z"/>
      <path d="M289.33,35.56v15.63h-2.59v-2.31c-.49.8-1.18,1.42-2.07,1.87-.88.45-1.86.67-2.92.67-1.22,0-2.31-.25-3.28-.76-.97-.5-1.74-1.26-2.3-2.27-.56-1.01-.84-2.23-.84-3.68v-9.15h2.57v8.81c0,1.54.39,2.72,1.17,3.55.78.83,1.84,1.24,3.19,1.24s2.48-.43,3.28-1.28c.8-.86,1.2-2.1,1.2-3.74v-8.58h2.59Z"/>
      <path d="M293.81,32.51c-.34-.34-.51-.76-.51-1.25s.17-.91.51-1.25.76-.51,1.25-.51.88.17,1.21.51.5.76.5,1.25-.17.91-.5,1.25-.74.51-1.21.51-.91-.17-1.25-.51ZM296.32,35.56v15.63h-2.59v-15.63h2.59Z"/>
      <path d="M303.05,50.83c-.95-.41-1.7-.98-2.25-1.71-.55-.73-.85-1.57-.91-2.52h2.68c.08.78.44,1.42,1.1,1.91.66.49,1.52.74,2.58.74.99,0,1.77-.22,2.34-.66.57-.44.86-.99.86-1.65s-.3-1.19-.91-1.53c-.61-.33-1.55-.66-2.82-.98-1.16-.3-2.11-.61-2.84-.93-.73-.31-1.36-.78-1.88-1.4-.52-.62-.78-1.43-.78-2.44,0-.8.24-1.53.71-2.2.48-.67,1.15-1.19,2.02-1.58.87-.39,1.87-.58,2.99-.58,1.73,0,3.13.44,4.19,1.31,1.06.88,1.63,2.07,1.71,3.59h-2.6c-.06-.82-.38-1.47-.98-1.97-.6-.49-1.4-.74-2.41-.74-.93,0-1.67.2-2.22.6-.55.4-.83.92-.83,1.57,0,.51.17.94.5,1.27s.75.6,1.25.8c.5.2,1.2.42,2.1.67,1.12.3,2.03.6,2.74.9.7.29,1.31.74,1.81,1.33.5.59.76,1.36.78,2.31,0,.86-.24,1.62-.71,2.31-.48.68-1.15,1.22-2.01,1.61-.87.39-1.86.58-2.98.58-1.2,0-2.27-.2-3.22-.61Z"/>
      <path d="M315.62,39.11c.65-1.21,1.53-2.14,2.67-2.81,1.13-.67,2.39-1,3.78-1s2.56.29,3.56.88c1.01.59,1.76,1.33,2.25,2.22v-2.85h2.62v15.63h-2.62v-2.91c-.51.91-1.28,1.67-2.3,2.27-1.02.6-2.2.9-3.55.9s-2.64-.34-3.76-1.03c-1.12-.68-2.01-1.64-2.65-2.88-.65-1.24-.97-2.64-.97-4.22s.32-3,.97-4.21ZM327.17,40.27c-.48-.87-1.12-1.54-1.92-2.01-.81-.47-1.7-.7-2.67-.7s-1.85.23-2.65.68-1.44,1.12-1.91,2c-.48.87-.71,1.9-.71,3.08s.24,2.24.71,3.12c.48.88,1.11,1.56,1.91,2.02s1.68.7,2.65.7,1.86-.23,2.67-.7,1.45-1.14,1.92-2.02c.48-.88.71-1.92.71-3.09s-.24-2.2-.71-3.08Z"/>
      <path d="M358.14,51.19h-2.59l-10.44-15.83v15.83h-2.59v-19.9h2.59l10.44,15.8v-15.8h2.59v19.9Z"/>
      <path d="M362.56,39.11c.65-1.21,1.53-2.14,2.67-2.81,1.13-.67,2.39-1,3.78-1s2.56.29,3.56.88c1.01.59,1.76,1.33,2.25,2.22v-2.85h2.62v15.63h-2.62v-2.91c-.51.91-1.28,1.67-2.3,2.27-1.02.6-2.2.9-3.55.9s-2.64-.34-3.76-1.03c-1.12-.68-2.01-1.64-2.65-2.88-.65-1.24-.97-2.64-.97-4.22s.32-3,.97-4.21ZM374.11,40.27c-.48-.87-1.12-1.54-1.92-2.01-.81-.47-1.7-.7-2.67-.7s-1.85.23-2.65.68-1.44,1.12-1.91,2c-.48.87-.71,1.9-.71,3.08s.24,2.24.71,3.12c.48.88,1.11,1.56,1.91,2.02s1.68.7,2.65.7,1.86-.23,2.67-.7,1.45-1.14,1.92-2.02c.48-.88.71-1.92.71-3.09s-.24-2.2-.71-3.08Z"/>
      <path d="M381.84,39.11c.65-1.21,1.54-2.14,2.69-2.81,1.15-.67,2.47-1,3.95-1,1.92,0,3.5.47,4.75,1.4,1.24.93,2.07,2.22,2.47,3.88h-2.79c-.27-.95-.78-1.7-1.55-2.25-.77-.55-1.73-.83-2.87-.83-1.48,0-2.68.51-3.59,1.53-.91,1.02-1.37,2.46-1.37,4.32s.46,3.34,1.37,4.36c.91,1.03,2.11,1.54,3.59,1.54,1.14,0,2.09-.27,2.85-.8s1.28-1.29,1.57-2.28h2.79c-.42,1.6-1.25,2.88-2.51,3.83-1.25.96-2.82,1.44-4.7,1.44-1.48,0-2.8-.33-3.95-1-1.15-.67-2.05-1.61-2.69-2.82-.65-1.22-.97-2.64-.97-4.28s.32-3.03.97-4.23Z"/>
      <path d="M399.23,32.51c-.34-.34-.51-.76-.51-1.25s.17-.91.51-1.25.76-.51,1.25-.51.88.17,1.21.51.5.76.5,1.25-.17.91-.5,1.25-.74.51-1.21.51-.91-.17-1.25-.51ZM401.74,35.56v15.63h-2.59v-15.63h2.59Z"/>
      <path d="M409,50.45c-1.19-.67-2.12-1.61-2.79-2.84s-1.01-2.65-1.01-4.26.35-3.01,1.04-4.23c.69-1.23,1.64-2.17,2.84-2.82,1.2-.66,2.54-.98,4.02-.98s2.82.33,4.02.98c1.2.66,2.14,1.59,2.84,2.81.69,1.22,1.04,2.63,1.04,4.25s-.36,3.04-1.07,4.26-1.68,2.17-2.89,2.84c-1.22.67-2.57,1-4.05,1s-2.79-.33-3.98-1ZM415.6,48.51c.82-.44,1.48-1.09,1.98-1.97.5-.87.76-1.94.76-3.19s-.25-2.32-.74-3.19c-.49-.87-1.14-1.53-1.94-1.95-.8-.43-1.66-.64-2.59-.64s-1.82.21-2.61.64c-.79.43-1.42,1.08-1.9,1.95s-.71,1.94-.71,3.19.23,2.35.7,3.22c.47.88,1.09,1.53,1.87,1.95.78.43,1.63.64,2.57.64s1.81-.22,2.62-.66Z"/>
      <path d="M436.64,37c1.18,1.15,1.77,2.81,1.77,4.98v9.21h-2.57v-8.84c0-1.56-.39-2.75-1.17-3.58-.78-.83-1.84-1.24-3.19-1.24s-2.46.43-3.27,1.28c-.81.86-1.21,2.1-1.21,3.74v8.64h-2.59v-15.63h2.59v2.22c.51-.8,1.21-1.42,2.1-1.85.88-.44,1.86-.66,2.92-.66,1.9,0,3.44.58,4.62,1.73Z"/>
      <path d="M442.66,39.11c.65-1.21,1.53-2.14,2.67-2.81,1.13-.67,2.39-1,3.78-1s2.56.29,3.56.88c1.01.59,1.76,1.33,2.25,2.22v-2.85h2.62v15.63h-2.62v-2.91c-.51.91-1.28,1.67-2.3,2.27-1.02.6-2.2.9-3.55.9s-2.64-.34-3.76-1.03c-1.12-.68-2.01-1.64-2.65-2.88-.65-1.24-.97-2.64-.97-4.22s.32-3,.97-4.21ZM454.21,40.27c-.48-.87-1.12-1.54-1.92-2.01-.81-.47-1.7-.7-2.67-.7s-1.85.23-2.65.68-1.44,1.12-1.91,2c-.48.87-.71,1.9-.71,3.08s.24,2.24.71,3.12c.48.88,1.11,1.56,1.91,2.02s1.68.7,2.65.7,1.86-.23,2.67-.7,1.45-1.14,1.92-2.02c.48-.88.71-1.92.71-3.09s-.24-2.2-.71-3.08Z"/>
      <path d="M464.53,30.09v21.1h-2.59v-21.1h2.59Z"/>
      <path d="M476.56,39.11c.65-1.21,1.53-2.14,2.67-2.81,1.13-.67,2.4-1,3.81-1,1.22,0,2.35.28,3.39.84,1.04.56,1.84,1.3,2.4,2.21v-8.27h2.62v21.1h-2.62v-2.94c-.51.93-1.27,1.7-2.28,2.3-1.01.6-2.19.9-3.54.9s-2.65-.34-3.78-1.03c-1.13-.68-2.02-1.64-2.67-2.88-.65-1.24-.97-2.64-.97-4.22s.32-3,.97-4.21ZM488.11,40.27c-.48-.87-1.12-1.54-1.92-2.01-.81-.47-1.7-.7-2.67-.7s-1.85.23-2.65.68-1.44,1.12-1.91,2c-.48.87-.71,1.9-.71,3.08s.24,2.24.71,3.12c.48.88,1.11,1.56,1.91,2.02s1.68.7,2.65.7,1.86-.23,2.67-.7,1.45-1.14,1.92-2.02c.48-.88.71-1.92.71-3.09s-.24-2.2-.71-3.08Z"/>
      <path d="M510.01,44.35h-12.49c.1,1.54.62,2.74,1.58,3.61.96.87,2.12,1.3,3.49,1.3,1.12,0,2.06-.26,2.81-.78.75-.52,1.28-1.22,1.58-2.1h2.79c-.42,1.5-1.25,2.72-2.51,3.66-1.25.94-2.81,1.41-4.68,1.41-1.48,0-2.81-.33-3.98-1-1.17-.67-2.09-1.61-2.75-2.84-.67-1.23-1-2.65-1-4.26s.32-3.03.97-4.25c.65-1.22,1.55-2.15,2.72-2.81,1.17-.66,2.51-.98,4.03-.98s2.79.32,3.94.97,2.02,1.54,2.64,2.67c.62,1.13.93,2.41.93,3.83,0,.49-.03,1.02-.09,1.57ZM506.76,39.69c-.44-.71-1.03-1.25-1.78-1.63-.75-.37-1.58-.56-2.49-.56-1.31,0-2.43.42-3.35,1.25-.92.84-1.45,2-1.58,3.48h9.87c0-.99-.22-1.84-.66-2.55Z"/>
      <path d="M221.15,75.02c-.53.96-1.35,1.73-2.45,2.32s-2.47.88-4.11.88h-3.02v7.19h-4.88v-20.02h7.9c1.6,0,2.95.28,4.05.83,1.1.55,1.93,1.31,2.48,2.28.55.97.83,2.08.83,3.34,0,1.16-.27,2.22-.8,3.18ZM216.31,73.69c.46-.44.68-1.06.68-1.85s-.23-1.42-.68-1.85c-.46-.44-1.15-.66-2.08-.66h-2.65v5.02h2.65c.93,0,1.63-.22,2.08-.66Z"/>
      <path d="M239.4,78.62h-11.04c.08.99.39,1.74.96,2.27.56.52,1.25.78,2.07.78,1.22,0,2.06-.51,2.54-1.54h5.19c-.27,1.05-.75,1.99-1.44,2.82-.69.84-1.56,1.49-2.61,1.97-1.05.47-2.21.71-3.51.71-1.56,0-2.95-.33-4.16-1-1.22-.67-2.17-1.62-2.85-2.85-.68-1.24-1.03-2.68-1.03-4.33s.34-3.1,1.01-4.33c.67-1.24,1.62-2.19,2.84-2.85,1.22-.67,2.61-1,4.19-1s2.91.32,4.11.97c1.2.65,2.13,1.57,2.81,2.77.67,1.2,1.01,2.59,1.01,4.19,0,.46-.03.93-.09,1.43ZM234.5,75.91c0-.84-.29-1.5-.86-2-.57-.49-1.28-.74-2.14-.74s-1.51.24-2.07.71c-.56.48-.91,1.15-1.04,2.02h6.1Z"/>
      <path d="M249.07,70.08c.86-.5,1.81-.76,2.85-.76v5.16h-1.34c-1.22,0-2.13.26-2.74.78-.61.52-.91,1.44-.91,2.75v7.38h-4.88v-15.91h4.88v2.65c.57-.87,1.28-1.56,2.14-2.07Z"/>
      <path d="M254.3,73.12c.67-1.24,1.62-2.19,2.82-2.85,1.21-.67,2.59-1,4.15-1,2,0,3.66.52,5,1.57,1.34,1.05,2.22,2.52,2.64,4.42h-5.19c-.44-1.22-1.28-1.82-2.54-1.82-.89,0-1.61.35-2.14,1.04-.53.69-.8,1.69-.8,2.98s.27,2.29.8,2.98c.53.69,1.24,1.04,2.14,1.04,1.25,0,2.1-.61,2.54-1.83h5.19c-.42,1.86-1.3,3.33-2.65,4.39-1.35,1.07-3.01,1.6-4.99,1.6-1.56,0-2.94-.33-4.15-1-1.21-.67-2.15-1.62-2.82-2.85s-1.01-2.68-1.01-4.33.34-3.1,1.01-4.33Z"/>
      <path d="M286.43,78.62h-11.04c.08.99.39,1.74.96,2.27.56.52,1.25.78,2.07.78,1.22,0,2.06-.51,2.54-1.54h5.19c-.27,1.05-.75,1.99-1.44,2.82-.69.84-1.56,1.49-2.61,1.97-1.05.47-2.21.71-3.51.71-1.56,0-2.95-.33-4.16-1-1.22-.67-2.17-1.62-2.85-2.85-.68-1.24-1.03-2.68-1.03-4.33s.34-3.1,1.01-4.33c.67-1.24,1.62-2.19,2.84-2.85,1.22-.67,2.61-1,4.19-1s2.91.32,4.11.97c1.2.65,2.13,1.57,2.81,2.77.67,1.2,1.01,2.59,1.01,4.19,0,.46-.03.93-.09,1.43ZM281.52,75.91c0-.84-.29-1.5-.86-2-.57-.49-1.28-.74-2.14-.74s-1.51.24-2.07.71c-.56.48-.91,1.15-1.04,2.02h6.1Z"/>
      <path d="M295.92,69.95c.84-.46,1.82-.68,2.94-.68,1.31,0,2.5.33,3.56,1,1.06.67,1.91,1.62,2.52,2.85.62,1.24.93,2.67.93,4.31s-.31,3.08-.93,4.32c-.62,1.25-1.46,2.21-2.52,2.88-1.06.67-2.25,1.01-3.56,1.01-1.1,0-2.08-.23-2.92-.68-.85-.46-1.51-1.05-1.98-1.77v9.81h-4.88v-23.5h4.88v2.25c.48-.74,1.13-1.34,1.97-1.8ZM299.9,74.56c-.67-.69-1.51-1.04-2.5-1.04s-1.79.35-2.47,1.06c-.68.7-1.01,1.66-1.01,2.88s.34,2.18,1.01,2.88c.67.7,1.5,1.05,2.47,1.05s1.8-.36,2.48-1.07c.68-.71,1.03-1.68,1.03-2.89s-.34-2.17-1.01-2.87Z"/>
      <path d="M317.91,79.65h5.19c-.36,1.62-1.08,2.94-2.17,3.96-1.08,1.03-2.43,1.66-4.05,1.91v1.05c.99,0,1.85.27,2.59.81.74.54,1.11,1.35,1.11,2.44s-.39,1.91-1.17,2.47c-.78.56-1.71.84-2.79.84h-4.39v-2.68h3.74c.38,0,.67-.06.86-.17.19-.11.29-.3.29-.57s-.1-.45-.29-.56c-.19-.11-.48-.16-.86-.16h-2.02v-3.48c-1.96-.3-3.53-1.17-4.71-2.61-1.18-1.43-1.77-3.25-1.77-5.46,0-1.65.34-3.1,1.01-4.33.67-1.24,1.62-2.19,2.82-2.85,1.21-.67,2.59-1,4.15-1,2,0,3.66.52,5,1.57,1.34,1.05,2.22,2.52,2.64,4.42h-5.19c-.44-1.22-1.28-1.82-2.54-1.82-.89,0-1.61.35-2.14,1.04-.53.69-.8,1.69-.8,2.98s.27,2.29.8,2.98c.53.69,1.24,1.04,2.14,1.04,1.25,0,2.1-.61,2.54-1.83Z"/>
      <path d="M325.65,73.12c.62-1.24,1.46-2.19,2.52-2.85,1.06-.67,2.25-1,3.56-1,1.12,0,2.11.23,2.95.68s1.5,1.06,1.95,1.8v-2.25h4.88v15.91h-4.88v-2.25c-.48.74-1.14,1.34-1.98,1.8-.85.46-1.83.68-2.95.68-1.29,0-2.47-.34-3.54-1.01s-1.91-1.63-2.52-2.88-.93-2.68-.93-4.32.31-3.07.93-4.31ZM331.94,63.94c.42,0,.78.06,1.1.19.31.12.7.31,1.15.56.34.19.62.33.83.41.21.09.43.13.66.13.7,0,1.11-.43,1.23-1.28h2.51c-.46,2.81-1.77,4.22-3.94,4.22-.42,0-.78-.06-1.1-.19-.31-.12-.7-.31-1.15-.56-.34-.19-.62-.33-.83-.41s-.43-.13-.66-.13c-.7,0-1.12.43-1.25,1.28h-2.48c.46-2.81,1.77-4.22,3.94-4.22ZM335.63,74.57c-.68-.7-1.5-1.06-2.47-1.06s-1.79.35-2.47,1.04c-.68.69-1.01,1.65-1.01,2.87s.34,2.18,1.01,2.89c.67.71,1.5,1.07,2.47,1.07s1.79-.35,2.47-1.05c.67-.7,1.01-1.66,1.01-2.88s-.34-2.18-1.01-2.88Z"/>
      <path d="M348.09,84.64c-1.25-.67-2.22-1.62-2.94-2.85s-1.07-2.68-1.07-4.33.36-3.07,1.08-4.32c.72-1.24,1.71-2.2,2.97-2.87,1.25-.67,2.66-1,4.22-1s2.97.33,4.22,1c1.25.67,2.24,1.62,2.97,2.87.72,1.25,1.08,2.69,1.08,4.32s-.37,3.08-1.1,4.32c-.73,1.25-1.73,2.2-2.99,2.87-1.26.67-2.68,1-4.23,1s-2.96-.33-4.21-1ZM354.68,80.39c.66-.68.98-1.66.98-2.94s-.32-2.25-.96-2.94c-.64-.68-1.42-1.03-2.35-1.03s-1.74.34-2.37,1.01c-.63.67-.94,1.66-.94,2.95s.31,2.25.93,2.94,1.39,1.03,2.32,1.03,1.73-.34,2.38-1.03Z"/>
      <path d="M372.03,84.92c-1.08-.48-1.94-1.13-2.57-1.95-.63-.83-.98-1.75-1.05-2.78h4.82c.06.55.31,1,.77,1.34.46.34,1.02.51,1.68.51.61,0,1.08-.12,1.41-.36.33-.24.5-.55.5-.93,0-.46-.24-.79-.71-1.01-.48-.22-1.25-.46-2.31-.73-1.14-.27-2.09-.55-2.85-.84-.76-.29-1.42-.76-1.97-1.4-.55-.64-.83-1.5-.83-2.58,0-.91.25-1.74.76-2.5.5-.75,1.25-1.34,2.22-1.78.98-.44,2.14-.66,3.49-.66,2,0,3.57.49,4.72,1.48,1.15.99,1.81,2.3,1.98,3.94h-4.51c-.08-.55-.32-.99-.73-1.31-.41-.32-.95-.48-1.61-.48-.57,0-1.01.11-1.31.33-.3.22-.46.52-.46.9,0,.46.24.8.73,1.03.48.23,1.24.46,2.27.68,1.18.3,2.14.6,2.88.9.74.29,1.39.77,1.95,1.43.56.66.85,1.54.87,2.64,0,.93-.26,1.76-.78,2.5s-1.27,1.31-2.25,1.72c-.98.42-2.12.63-3.41.63-1.39,0-2.62-.24-3.71-.71Z"/>
      <path d="M388.21,84.64c-1.25-.67-2.22-1.62-2.94-2.85s-1.07-2.68-1.07-4.33.36-3.07,1.08-4.32c.72-1.24,1.71-2.2,2.97-2.87,1.25-.67,2.66-1,4.22-1s2.97.33,4.22,1c1.25.67,2.24,1.62,2.97,2.87.72,1.25,1.08,2.69,1.08,4.32s-.37,3.08-1.1,4.32c-.73,1.25-1.73,2.2-2.99,2.87-1.26.67-2.68,1-4.23,1s-2.96-.33-4.21-1ZM394.8,80.39c.66-.68.98-1.66.98-2.94s-.32-2.25-.96-2.94c-.64-.68-1.42-1.03-2.35-1.03s-1.74.34-2.37,1.01c-.63.67-.94,1.66-.94,2.95s.31,2.25.93,2.94,1.39,1.03,2.32,1.03,1.73-.34,2.38-1.03Z"/>
      <path d="M410.18,69.95c.86-.46,1.83-.68,2.94-.68,1.31,0,2.5.33,3.56,1,1.06.67,1.91,1.62,2.52,2.85.62,1.24.93,2.67.93,4.31s-.31,3.08-.93,4.32c-.62,1.25-1.46,2.21-2.52,2.88-1.06.67-2.25,1.01-3.56,1.01-1.12,0-2.1-.22-2.94-.67-.84-.45-1.49-1.04-1.97-1.78v2.22h-4.88v-21.1h4.88v7.44c.46-.74,1.11-1.34,1.97-1.8ZM414.16,74.56c-.67-.69-1.51-1.04-2.5-1.04s-1.79.35-2.47,1.06c-.68.7-1.01,1.66-1.01,2.88s.34,2.18,1.01,2.88c.67.7,1.5,1.05,2.47,1.05s1.8-.36,2.48-1.07c.68-.71,1.03-1.68,1.03-2.89s-.34-2.17-1.01-2.87Z"/>
      <path d="M429.71,70.08c.86-.5,1.81-.76,2.85-.76v5.16h-1.34c-1.22,0-2.13.26-2.74.78-.61.52-.91,1.44-.91,2.75v7.38h-4.88v-15.91h4.88v2.65c.57-.87,1.28-1.56,2.14-2.07Z"/>
      <path d="M449.82,78.62h-11.04c.08.99.39,1.74.96,2.27.56.52,1.25.78,2.07.78,1.22,0,2.06-.51,2.54-1.54h5.19c-.27,1.05-.75,1.99-1.44,2.82-.69.84-1.56,1.49-2.61,1.97-1.05.47-2.21.71-3.51.71-1.56,0-2.95-.33-4.16-1-1.22-.67-2.17-1.62-2.85-2.85-.68-1.24-1.03-2.68-1.03-4.33s.34-3.1,1.01-4.33c.67-1.24,1.62-2.19,2.84-2.85,1.22-.67,2.61-1,4.19-1s2.91.32,4.11.97c1.2.65,2.13,1.57,2.81,2.77.67,1.2,1.01,2.59,1.01,4.19,0,.46-.03.93-.09,1.43ZM444.91,75.91c0-.84-.29-1.5-.86-2-.57-.49-1.28-.74-2.14-.74s-1.51.24-2.07.71c-.56.48-.91,1.15-1.04,2.02h6.1Z"/>
      <path d="M461.55,84.64c-1.25-.67-2.22-1.62-2.94-2.85s-1.07-2.68-1.07-4.33.36-3.07,1.08-4.32c.72-1.24,1.71-2.2,2.97-2.87,1.25-.67,2.66-1,4.22-1s2.97.33,4.22,1c1.25.67,2.24,1.62,2.97,2.87.72,1.25,1.08,2.69,1.08,4.32s-.37,3.08-1.1,4.32c-.73,1.25-1.73,2.2-2.99,2.87-1.26.67-2.68,1-4.23,1s-2.96-.33-4.21-1ZM468.14,80.39c.66-.68.98-1.66.98-2.94s-.32-2.25-.96-2.94c-.64-.68-1.42-1.03-2.35-1.03s-1.74.34-2.37,1.01c-.63.67-.94,1.66-.94,2.95s.31,2.25.93,2.94,1.39,1.03,2.32,1.03,1.73-.34,2.38-1.03Z"/>
      <path d="M483.18,70.08c.86-1.55,2.05-2.76,3.58-3.62,1.53-.86,3.27-1.3,5.2-1.3,2.38,0,4.41.63,6.1,1.88,1.69,1.25,2.82,2.97,3.39,5.13h-5.36c-.4-.84-.97-1.47-1.7-1.91-.73-.44-1.56-.66-2.5-.66-1.5,0-2.72.52-3.65,1.57-.93,1.05-1.4,2.44-1.4,4.19s.47,3.15,1.4,4.19c.93,1.05,2.15,1.57,3.65,1.57.93,0,1.76-.22,2.5-.66.73-.44,1.3-1.07,1.7-1.91h5.36c-.57,2.17-1.7,3.87-3.39,5.12-1.69,1.25-3.73,1.87-6.1,1.87-1.94,0-3.67-.43-5.2-1.3-1.53-.86-2.72-2.07-3.58-3.61-.86-1.54-1.28-3.3-1.28-5.27s.43-3.74,1.28-5.29Z"/>
      <path d="M509.33,64.31v21.1h-4.88v-21.1h4.88Z"/>
      <path d="M513.22,67.09c-.54-.5-.81-1.13-.81-1.87s.27-1.39.81-1.9c.54-.5,1.24-.76,2.1-.76s1.53.25,2.07.76c.54.5.81,1.14.81,1.9s-.27,1.36-.81,1.87c-.54.5-1.23.76-2.07.76s-1.55-.25-2.1-.76ZM517.74,69.5v15.91h-4.88v-15.91h4.88Z"/>
      <path d="M546.3,71.12c1.17,1.2,1.75,2.86,1.75,4.99v9.3h-4.85v-8.64c0-1.03-.27-1.82-.81-2.38-.54-.56-1.29-.84-2.24-.84s-1.7.28-2.24.84c-.54.56-.81,1.35-.81,2.38v8.64h-4.85v-8.64c0-1.03-.27-1.82-.81-2.38-.54-.56-1.29-.84-2.24-.84s-1.7.28-2.24.84c-.54.56-.81,1.35-.81,2.38v8.64h-4.88v-15.91h4.88v2c.49-.67,1.14-1.19,1.94-1.58.8-.39,1.7-.58,2.71-.58,1.2,0,2.27.26,3.21.77.94.51,1.68,1.25,2.21,2.2.55-.87,1.3-1.59,2.25-2.14.95-.55,1.99-.83,3.11-.83,1.98,0,3.55.6,4.72,1.8Z"/>
      <path d="M551.43,73.12c.62-1.24,1.46-2.19,2.52-2.85,1.06-.67,2.25-1,3.56-1,1.12,0,2.11.23,2.95.68s1.5,1.06,1.95,1.8v-2.25h4.88v15.91h-4.88v-2.25c-.48.74-1.14,1.34-1.98,1.8s-1.83.68-2.95.68c-1.29,0-2.47-.34-3.54-1.01s-1.91-1.63-2.52-2.88-.93-2.68-.93-4.32.31-3.07.93-4.31ZM561.41,74.57c-.67-.7-1.5-1.06-2.47-1.06s-1.79.35-2.47,1.04c-.68.69-1.01,1.65-1.01,2.87s.34,2.18,1.01,2.89c.67.71,1.5,1.07,2.47,1.07s1.79-.35,2.47-1.05,1.01-1.66,1.01-2.88-.34-2.18-1.01-2.88Z"/>
      <path d="M220.86,105.35c1.11,1.21,1.67,2.87,1.67,4.98v9.3h-4.85v-8.64c0-1.06-.28-1.89-.83-2.48-.55-.59-1.29-.88-2.22-.88s-1.67.29-2.22.88c-.55.59-.83,1.42-.83,2.48v8.64h-4.88v-15.91h4.88v2.11c.49-.7,1.16-1.26,2-1.67.84-.41,1.78-.61,2.82-.61,1.86,0,3.35.6,4.46,1.81Z"/>
      <path d="M225.87,107.34c.62-1.24,1.46-2.19,2.52-2.85,1.06-.67,2.25-1,3.56-1,1.12,0,2.11.23,2.95.68s1.5,1.05,1.95,1.8v-2.25h4.88v15.91h-4.88v-2.25c-.48.74-1.14,1.34-1.98,1.8-.85.46-1.83.68-2.95.68-1.29,0-2.47-.34-3.54-1.01s-1.91-1.63-2.52-2.88-.93-2.68-.93-4.32.31-3.07.93-4.31ZM235.85,108.79c-.68-.7-1.5-1.05-2.47-1.05s-1.79.35-2.47,1.04c-.68.69-1.01,1.65-1.01,2.87s.34,2.18,1.01,2.89c.67.71,1.5,1.07,2.47,1.07s1.79-.35,2.47-1.05c.67-.7,1.01-1.66,1.01-2.88s-.34-2.18-1.01-2.88Z"/>
      <path d="M248.04,119.14c-1.08-.48-1.94-1.13-2.57-1.95-.63-.83-.98-1.75-1.05-2.78h4.82c.06.55.31,1,.77,1.34.46.34,1.02.51,1.68.51.61,0,1.08-.12,1.41-.36.33-.24.5-.55.5-.93,0-.46-.24-.79-.71-1.01s-1.25-.46-2.31-.73c-1.14-.27-2.09-.55-2.85-.84-.76-.29-1.42-.76-1.97-1.4-.55-.64-.83-1.5-.83-2.58,0-.91.25-1.74.76-2.5s1.25-1.34,2.22-1.78c.98-.44,2.14-.66,3.49-.66,2,0,3.57.5,4.72,1.48,1.15.99,1.81,2.3,1.98,3.93h-4.51c-.08-.55-.32-.99-.73-1.31-.41-.32-.95-.48-1.61-.48-.57,0-1.01.11-1.31.33-.3.22-.46.52-.46.9,0,.46.24.8.73,1.03.48.23,1.24.46,2.27.68,1.18.3,2.14.6,2.88.9.74.29,1.39.77,1.95,1.43.56.66.85,1.54.87,2.64,0,.93-.26,1.76-.78,2.5s-1.27,1.31-2.25,1.72c-.98.42-2.12.63-3.41.63-1.39,0-2.62-.24-3.71-.71Z"/>
      <path d="M272.03,99.61v11.98c0,1.2.29,2.12.88,2.77.59.65,1.45.97,2.59.97s2.02-.32,2.62-.97c.61-.65.91-1.57.91-2.77v-11.98h4.88v11.95c0,1.79-.38,3.3-1.14,4.53-.76,1.24-1.78,2.17-3.07,2.79-1.28.63-2.71.94-4.29.94s-2.99-.31-4.23-.93c-1.25-.62-2.23-1.55-2.95-2.79-.72-1.25-1.08-2.76-1.08-4.55v-11.95h4.88Z"/>
      <path d="M301.5,105.35c1.11,1.21,1.67,2.87,1.67,4.98v9.3h-4.85v-8.64c0-1.06-.28-1.89-.83-2.48-.55-.59-1.29-.88-2.22-.88s-1.67.29-2.22.88c-.55.59-.83,1.42-.83,2.48v8.64h-4.88v-15.91h4.88v2.11c.49-.7,1.16-1.26,2-1.67.84-.41,1.78-.61,2.82-.61,1.86,0,3.35.6,4.46,1.81Z"/>
      <path d="M306.91,101.3c-.54-.5-.81-1.13-.81-1.87s.27-1.39.81-1.9c.54-.5,1.24-.76,2.1-.76s1.53.25,2.07.76c.54.5.81,1.14.81,1.9s-.27,1.36-.81,1.87c-.54.5-1.23.76-2.07.76s-1.55-.25-2.1-.76ZM311.43,103.71v15.91h-4.88v-15.91h4.88Z"/>
      <path d="M314.93,107.34c.62-1.24,1.46-2.19,2.52-2.85,1.06-.67,2.25-1,3.56-1,1.05,0,2,.22,2.87.66.86.44,1.54,1.03,2.04,1.77v-7.38h4.88v21.1h-4.88v-2.28c-.46.76-1.11,1.37-1.95,1.83s-1.83.68-2.95.68c-1.31,0-2.5-.34-3.56-1.01s-1.91-1.63-2.52-2.88-.93-2.68-.93-4.32.31-3.07.93-4.31ZM324.91,108.79c-.68-.7-1.5-1.05-2.47-1.05s-1.79.35-2.47,1.04c-.68.69-1.01,1.65-1.01,2.87s.34,2.18,1.01,2.89c.67.71,1.5,1.07,2.47,1.07s1.79-.35,2.47-1.05c.67-.7,1.01-1.66,1.01-2.88s-.34-2.18-1.01-2.88Z"/>
      <path d="M334.29,107.34c.62-1.24,1.46-2.19,2.52-2.85,1.06-.67,2.25-1,3.56-1,1.12,0,2.11.23,2.95.68s1.5,1.05,1.95,1.8v-2.25h4.88v15.91h-4.88v-2.25c-.48.74-1.14,1.34-1.98,1.8-.85.46-1.83.68-2.95.68-1.29,0-2.47-.34-3.54-1.01s-1.91-1.63-2.52-2.88-.93-2.68-.93-4.32.31-3.07.93-4.31ZM344.27,108.79c-.68-.7-1.5-1.05-2.47-1.05s-1.79.35-2.47,1.04c-.68.69-1.01,1.65-1.01,2.87s.34,2.18,1.01,2.89c.67.71,1.5,1.07,2.47,1.07s1.79-.35,2.47-1.05c.67-.7,1.01-1.66,1.01-2.88s-.34-2.18-1.01-2.88Z"/>
      <path d="M353.65,107.34c.62-1.24,1.46-2.19,2.52-2.85,1.06-.67,2.25-1,3.56-1,1.05,0,2,.22,2.87.66.86.44,1.54,1.03,2.04,1.77v-7.38h4.88v21.1h-4.88v-2.28c-.46.76-1.11,1.37-1.95,1.83s-1.83.68-2.95.68c-1.31,0-2.5-.34-3.56-1.01s-1.91-1.63-2.52-2.88-.93-2.68-.93-4.32.31-3.07.93-4.31ZM363.63,108.79c-.68-.7-1.5-1.05-2.47-1.05s-1.79.35-2.47,1.04c-.68.69-1.01,1.65-1.01,2.87s.34,2.18,1.01,2.89c.67.71,1.5,1.07,2.47,1.07s1.79-.35,2.47-1.05c.67-.7,1.01-1.66,1.01-2.88s-.34-2.18-1.01-2.88Z"/>
      <path d="M387.97,112.84h-11.04c.08.99.39,1.74.96,2.27.56.52,1.25.78,2.07.78,1.22,0,2.06-.51,2.54-1.54h5.19c-.27,1.05-.75,1.99-1.44,2.82-.69.84-1.56,1.49-2.61,1.97-1.05.47-2.21.71-3.51.71-1.56,0-2.95-.33-4.16-1-1.22-.67-2.17-1.62-2.85-2.85-.68-1.24-1.03-2.68-1.03-4.33s.34-3.1,1.01-4.33c.67-1.24,1.62-2.19,2.84-2.85,1.22-.67,2.61-1,4.19-1s2.91.32,4.11.97,2.13,1.57,2.81,2.77c.67,1.2,1.01,2.59,1.01,4.19,0,.46-.03.93-.09,1.43ZM383.06,110.13c0-.84-.29-1.5-.86-2s-1.28-.74-2.14-.74-1.51.24-2.07.71c-.56.48-.91,1.15-1.04,2.03h6.1Z"/>
      <path d="M393.38,119.14c-1.08-.48-1.94-1.13-2.57-1.95-.63-.83-.98-1.75-1.05-2.78h4.82c.06.55.31,1,.77,1.34.46.34,1.02.51,1.68.51.61,0,1.08-.12,1.41-.36.33-.24.5-.55.5-.93,0-.46-.24-.79-.71-1.01s-1.25-.46-2.31-.73c-1.14-.27-2.09-.55-2.85-.84-.76-.29-1.42-.76-1.97-1.4-.55-.64-.83-1.5-.83-2.58,0-.91.25-1.74.76-2.5s1.25-1.34,2.22-1.78c.98-.44,2.14-.66,3.49-.66,2,0,3.57.5,4.72,1.48,1.15.99,1.81,2.3,1.98,3.93h-4.51c-.08-.55-.32-.99-.73-1.31-.41-.32-.95-.48-1.61-.48-.57,0-1.01.11-1.31.33-.3.22-.46.52-.46.9,0,.46.24.8.73,1.03.48.23,1.24.46,2.27.68,1.18.3,2.14.6,2.88.9.74.29,1.39.77,1.95,1.43.56.66.85,1.54.87,2.64,0,.93-.26,1.76-.78,2.5s-1.27,1.31-2.25,1.72c-.98.42-2.12.63-3.41.63-1.39,0-2.62-.24-3.71-.71Z"/>
      <path d="M412.53,107.34c.62-1.24,1.46-2.19,2.52-2.85,1.06-.67,2.25-1,3.56-1,1.05,0,2,.22,2.87.66.86.44,1.54,1.03,2.04,1.77v-7.38h4.88v21.1h-4.88v-2.28c-.46.76-1.11,1.37-1.95,1.83s-1.83.68-2.95.68c-1.31,0-2.5-.34-3.56-1.01s-1.91-1.63-2.52-2.88-.93-2.68-.93-4.32.31-3.07.93-4.31ZM422.51,108.79c-.68-.7-1.5-1.05-2.47-1.05s-1.79.35-2.47,1.04c-.68.69-1.01,1.65-1.01,2.87s.34,2.18,1.01,2.89c.67.71,1.5,1.07,2.47,1.07s1.79-.35,2.47-1.05c.67-.7,1.01-1.66,1.01-2.88s-.34-2.18-1.01-2.88Z"/>
      <path d="M434.97,118.86c-1.25-.67-2.22-1.62-2.94-2.85s-1.07-2.68-1.07-4.33.36-3.07,1.08-4.32c.72-1.25,1.71-2.2,2.97-2.87,1.25-.67,2.66-1,4.22-1s2.97.33,4.22,1c1.25.67,2.24,1.62,2.97,2.87.72,1.25,1.08,2.68,1.08,4.32s-.37,3.08-1.1,4.32c-.73,1.25-1.73,2.2-2.99,2.87-1.26.67-2.68,1-4.23,1s-2.96-.33-4.21-1ZM441.56,114.61c.66-.68.98-1.66.98-2.94s-.32-2.25-.96-2.94c-.64-.68-1.42-1.03-2.35-1.03s-1.74.34-2.37,1.01c-.63.67-.94,1.66-.94,2.95s.31,2.25.93,2.94,1.39,1.03,2.32,1.03,1.73-.34,2.38-1.03Z"/>
      <path d="M459.45,119.11c-1.16-.47-2.09-1.18-2.78-2.11-.69-.93-1.06-2.05-1.1-3.37h5.19c.08.74.33,1.31.77,1.7.44.39,1.01.58,1.71.58s1.29-.17,1.71-.5c.42-.33.63-.79.63-1.38,0-.49-.17-.9-.5-1.23-.33-.32-.74-.59-1.23-.8-.48-.21-1.17-.45-2.07-.71-1.29-.4-2.35-.8-3.17-1.2-.82-.4-1.52-.99-2.11-1.77-.59-.78-.88-1.8-.88-3.05,0-1.86.67-3.32,2.02-4.38,1.35-1.06,3.11-1.58,5.28-1.58s3.98.53,5.33,1.58c1.35,1.05,2.07,2.52,2.17,4.41h-5.27c-.04-.65-.28-1.16-.71-1.53-.44-.37-1-.56-1.68-.56-.59,0-1.06.16-1.43.47-.36.31-.54.77-.54,1.35,0,.65.3,1.15.91,1.51s1.56.75,2.85,1.17c1.29.44,2.34.86,3.15,1.25.81.4,1.51.98,2.1,1.74.59.76.88,1.74.88,2.94s-.29,2.18-.87,3.11c-.58.93-1.42,1.67-2.52,2.22-1.1.55-2.41.83-3.91.83s-2.78-.24-3.94-.71Z"/>
      <path d="M488.6,112.84h-11.04c.08.99.39,1.74.96,2.27.56.52,1.25.78,2.07.78,1.22,0,2.06-.51,2.54-1.54h5.19c-.27,1.05-.75,1.99-1.44,2.82-.69.84-1.56,1.49-2.61,1.97-1.05.47-2.21.71-3.51.71-1.56,0-2.95-.33-4.16-1-1.22-.67-2.17-1.62-2.85-2.85-.68-1.24-1.03-2.68-1.03-4.33s.34-3.1,1.01-4.33c.67-1.24,1.62-2.19,2.84-2.85,1.22-.67,2.61-1,4.19-1s2.91.32,4.11.97,2.13,1.57,2.81,2.77c.67,1.2,1.01,2.59,1.01,4.19,0,.46-.03.93-.09,1.43ZM483.69,110.13c0-.84-.29-1.5-.86-2s-1.28-.74-2.14-.74-1.51.24-2.07.71c-.56.48-.91,1.15-1.04,2.03h6.1Z"/>
      <path d="M505.41,105.35c1.11,1.21,1.67,2.87,1.67,4.98v9.3h-4.85v-8.64c0-1.06-.28-1.89-.83-2.48-.55-.59-1.29-.88-2.22-.88s-1.67.29-2.22.88c-.55.59-.83,1.42-.83,2.48v8.64h-4.88v-15.91h4.88v2.11c.49-.7,1.16-1.26,2-1.67.84-.41,1.78-.61,2.82-.61,1.86,0,3.35.6,4.46,1.81Z"/>
      <path d="M510.42,107.34c.62-1.24,1.46-2.19,2.52-2.85,1.06-.67,2.25-1,3.56-1,1.12,0,2.11.23,2.95.68s1.5,1.05,1.95,1.8v-2.25h4.88v15.91h-4.88v-2.25c-.48.74-1.14,1.34-1.98,1.8-.85.46-1.83.68-2.95.68-1.29,0-2.47-.34-3.54-1.01-1.06-.67-1.91-1.63-2.52-2.88s-.93-2.68-.93-4.32.31-3.07.93-4.31ZM520.4,108.79c-.67-.7-1.5-1.05-2.47-1.05s-1.79.35-2.47,1.04c-.67.69-1.01,1.65-1.01,2.87s.34,2.18,1.01,2.89,1.5,1.07,2.47,1.07,1.79-.35,2.47-1.05,1.01-1.66,1.01-2.88-.34-2.18-1.01-2.88Z"/>
      <path d="M529.87,107.34c.67-1.24,1.62-2.19,2.82-2.85,1.21-.67,2.59-1,4.15-1,2,0,3.66.52,5,1.57,1.34,1.05,2.22,2.52,2.64,4.42h-5.19c-.44-1.22-1.28-1.83-2.54-1.83-.89,0-1.61.35-2.14,1.04-.53.69-.8,1.69-.8,2.98s.27,2.29.8,2.98c.53.69,1.24,1.04,2.14,1.04,1.25,0,2.1-.61,2.54-1.83h5.19c-.42,1.86-1.3,3.33-2.65,4.39-1.35,1.07-3.01,1.6-4.99,1.6-1.56,0-2.94-.33-4.15-1-1.21-.67-2.15-1.62-2.82-2.85s-1.01-2.68-1.01-4.33.34-3.1,1.01-4.33Z"/>
    </g>
    <path class="cls-1" d="M842.6,264.18c8.03-6.91,11.12-17.86,8.95-31.68-2.73-17.4-10.35-37.87-20.6-57.04,8.47-.21,16.44-1.5,23.13-4.21,8.07-3.27,13.49-8.26,16.08-14.83,5.88-14.88-4.97-43-33.18-85.98-22.23-33.86-49.14-67.19-59.15-79.33,8.94-.76,25.89-2.96,41.42-9.24,21.71-8.78,33.2-22.85,33.22-40.68.02-22.92-16.29-40.29-47.19-50.28-22.68-7.34-44.98-8.14-45.92-8.18-1.74-.06-3.2,1.31-3.25,3.05-.06,1.74,1.31,3.2,3.05,3.26.86.03,85.5,3.4,86.99,50.82.01.44.02.88.02,1.32-.02,15.27-9.87,26.99-29.28,34.84-20.86,8.44-45.29,9.17-45.54,9.17-1.21.03-2.3.76-2.8,1.86-.5,1.11-.31,2.4.47,3.33.35.41,35.14,41.56,62.68,83.51,33.17,50.53,36.03,71.51,32.59,80.2-1.94,4.9-6.17,8.71-12.59,11.3-6.49,2.63-14.93,3.86-24.22,3.81-8.48-14.8-18.44-28.51-28.78-39.01-12.66-12.86-27.15-19.56-38.77-17.92-6.67.94-11.92,4.6-15.17,10.58-2.25,4.13-2.58,8.6-1.01,13.28,3.93,11.7,19.44,22.25,32.64,28.21,13.03,5.89,30.7,10.31,47.37,11.04,10.73,19.37,18.76,40.38,21.54,58.09,1.81,11.55-.55,20.51-6.84,25.92-9.08,7.81-25.96,8.36-47.54,1.56-33.52-10.57-74.4-37.29-117.31-76.07l.27,8.68c41.99,37.23,82.01,62.96,115.14,73.4,23.74,7.48,42.76,6.49,53.55-2.8ZM779.01,158.6c-15.07-6.81-26.56-16.42-29.26-24.48-1.01-3-.82-5.7.57-8.26,2.29-4.22,5.83-6.69,10.51-7.34,9.5-1.34,22.3,4.83,33.4,16.1,9.2,9.34,18.08,21.3,25.83,34.28-13.61-1.02-28.32-4.55-41.05-10.3Z"/>
    <g>
      <path d="M937.35,100.07c-.21-.02-.4-.03-.58-.03-2.95,0-4.97,1.15-4.97,3.23s2.04,3.54,4.97,3.54c.18,0,.36,0,.58-.03v2.65h-.01c-.18.01-.37.02-.56.02-3.7,0-7.62-1.28-8.66-4.45v4.45h-4.01l-6.92-7.68v7.68h-5.84c-4.29-.02-8.85-1.76-8.85-6.18,0-3.85,4-5.63,8.04-5.85v2.66c-2.46.21-4.09,1.32-4.09,3.19,0,2.06,2.01,3.52,4.91,3.54h1.86v-9.41c2.17,0,4.36.77,6.18,2.78,1.75,1.94,4.8,5.32,4.8,5.32v-8.1h3.92v4.26c1.04-2.97,4.96-4.26,8.66-4.26.19,0,.39.01.57.02v2.65Z"/>
      <path d="M967.66,103.42h-4.72c.25-1.22,1.09-2.01,2.39-2.01s2.14.81,2.33,2.01M981.77,104.13c0-1.6,1.67-2.89,3.73-2.89.25,0,.5.02.74.06v-2.02c-.44-.06-.92-.09-1.43-.09-3.56,0-6.24,2.13-6.24,4.98,0,.21.02.41.05.61-.51-.9-1.67-1.36-3.34-1.71-2.1-.43-2.39-.61-2.35-1.07.04-.44.74-.84,1.8-.84.67,0,1.57.16,2.37.53v-2.12c-.77-.24-1.62-.4-2.53-.4-2.65,0-4.42,1.27-4.56,3.01,0,.03,0,.06,0,.09-.63-1.74-2.11-3.06-4.71-3.06-3.09,0-5.21,2.26-5.21,5.01,0,.15.03.28.04.42-.5-1.26-1.92-1.9-4.13-2.39-2.36-.52-2.95-.77-2.95-1.53v-.03c0-.57.61-1.02,1.76-1.02s2.08.42,3.27,1.12v-2.76c-1.03-.41-1.95-.63-3.23-.63-2.8,0-4.79,1.4-4.79,3.51v.03c0,2.32,1.78,2.97,4.53,3.56,2.29.5,2.76.83,2.76,1.48v.03c0,.68-.74,1.1-1.97,1.1-1.56,0-2.95-.61-4.18-1.48l-1.78,1.82c1.64,1.25,3.83,1.92,5.9,1.92,2.95,0,5.02-1.29,5.02-3.6.62,2.03,2.44,3.37,4.94,3.37.47,0,1.15-.02,2.27-.29v-2.1c-1.04.3-1.49.33-2.1.3-1.22-.06-2.22-.75-2.51-1.96h7.39c.02-.25.04-.41.04-.67v-.03c0-.28-.03-.56-.06-.83.54.81,1.78,1.14,3.5,1.49,2.06.42,2.17.73,2.17,1.22,0,.43-.55.91-1.76.87-1.25-.04-2.71-.41-3.84-1.05v2.43c1.18.53,2.67.86,3.83.86,2.78,0,4.69-1.63,4.69-3.39,0-.07-.01-.12-.02-.19.48,1.19,1.46,2.09,2.58,2.64,1.1.53,2.27.7,3.23.71.57,0,1.06-.04,1.53-.11v-2.06c-.24.04-.48.06-.74.06-2.06,0-3.73-1.3-3.73-2.89"/>
      <path d="M974.38,43.93c-4.26-2.93-9.39-5.24-15.03-6.62-1.39-.33-2.8-.64-4.25-.85-.05,0-.11-.01-.17-.02-2.06,1.52-3.95,3.2-5.66,5,1.89-.28,3.82-.45,5.79-.52,6.88-.25,13.42.87,19.32,3.02"/>
      <path d="M947.52,57.68c2.67-1.98,5.6-3.74,8.76-5.23,7.78-3.67,15.93-5.23,23.62-4.89-6.62-2.92-14.22-4.46-22.25-4.17-3.96.15-7.78.73-11.4,1.69-1.81,2.43-3.3,5.04-4.43,7.78,1.75,1.72,3.65,3.34,5.7,4.83"/>
      <path d="M939.3,65.33c2.11-2.48,4.53-4.78,7.22-6.87-1.86-1.33-3.59-2.76-5.2-4.28-1.29,3.54-2,7.28-2.02,11.15"/>
      <path d="M941.28,50.99c.89-1.86,1.88-3.63,2.95-5.32-2.28.7-4.49,1.54-6.58,2.54.99,1.27,2.07,2.49,3.21,3.68.14-.3.27-.6.42-.9"/>
      <path d="M968.27,78.6c-.47,2.44-2.99,2.81-3.56,2.84-4.08.22-4.22-2.57-2.85-3.42,1.84-1.14,6.42-.5,6.42-.5,0,.17.04.58-.02,1.08M934.09,74.82h-8.07c.42-2.15,1.87-3.55,4.09-3.55s3.66,1.43,3.98,3.55M979.13,75.4v-.08c0-3.33,2.87-5.94,6.53-5.94.2,0,.39,0,.57.02v-4c-.17,0-.35,0-.52,0-6.37,0-11.36,3.4-12.39,8.16-.44-3.78-3.04-5.98-8.34-5.98-.24,0-1.06,0-1.28,0v4.04c1.04,0,2.47.19,3.11.52.94.49,1.42,1.32,1.44,2.44-1.28-.15-2.72-.25-3.98-.28-4.98-.13-7.5,1.47-8.1,4.06v-2.65c0-4.52-2.76-8.04-8.6-8.04-5.37,0-8.13,2.98-8.55,6.96-.67-3.93-3.47-7.15-8.91-7.15s-9.34,3.93-9.34,8.69v.06c0,.13.01.26.02.39-1.09-1.82-3.54-2.81-7.12-3.59-4.23-.9-4.83-1.34-4.83-2.68v-.06c0-.99,1.09-1.77,3.15-1.77,1.05,0,2.43.29,3.39.64v-4.27c-.9-.15-2.28-.33-3.32-.33-5.01,0-8.57,2.45-8.57,6.15v.05c0,4.04,3.18,5.18,8.12,6.23,4.1.87,4.48,1.46,4.48,2.59v.06c0,1.19-1.33,1.92-3.54,1.92-2.8,0-4.65-.96-6.86-2.47l-3.19,3.17c2.94,2.18,6.23,3.26,9.94,3.26,5.15,0,8.79-2.16,8.98-6.01,1.38,3.28,4.86,5.36,9.21,5.36.16,0,.69-.02.85-.03v-3.81c-.14,0-.64.03-.79.03-2.4,0-4.09-1.12-4.62-3.27h12.87v6.76h5.41v-9.17c.1-1.67.75-3.65,3.2-3.65s3.15,1.98,3.24,3.65v9.17h5.36v-3.67c.63,2.53,3.24,3.89,6.33,3.89,2.61,0,4.41-.84,5.71-2.12v1.93h5.18v-6.97c1.19,4.52,6.13,7.82,12.22,7.82.21,0,.41,0,.61,0v-3.99c-.1,0-.19,0-.29,0-3.95,0-6.82-2.53-6.82-6.01"/>
    </g>
    <g>
      <circle class="cls-5" cx="814.97" cy="45.67" r="10.56"/>
      <g>
        <circle class="cls-1" cx="809.88" cy="45.67" r="1.43"/>
        <circle class="cls-1" cx="814.97" cy="45.67" r="1.43"/>
        <circle class="cls-1" cx="820.06" cy="45.67" r="1.43"/>
      </g>
    </g>
  </g>
</svg>