<?xml version="1.0" encoding="UTF-8"?>
<svg id="Camada_1" data-name="Camada 1" xmlns="http://www.w3.org/2000/svg" xmlns:xlink="http://www.w3.org/1999/xlink" viewBox="0 0 375 96">
  <defs>
    <style>
      .cls-1 {
        fill: #fff;
      }

      .cls-2 {
        fill: none;
      }

      .cls-3 {
        fill: #fb1366;
      }

      .cls-4 {
        fill: #f78b1f;
      }

      .cls-5 {
        fill: #e7316a;
      }

      .cls-6 {
        fill: #34efda;
      }

      .cls-7 {
        clip-path: url(#clippath);
      }
    </style>
    <clipPath id="clippath">
      <rect class="cls-2" x=".5" y=".19" width="374.5" height="95.81"/>
    </clipPath>
  </defs>
  <g class="cls-7">
    <rect class="cls-6" x="-1.02" y="-1.15" width="377.67" height="99.45"/>
    <path class="cls-3" d="M49.88,71.4c3.31-2.14,5.01-6.03,4.9-11.24-.13-6.56-1.91-14.5-4.72-22.09,3.14.35,6.14.28,8.75-.39,3.14-.8,5.39-2.37,6.68-4.66,2.92-5.19.34-16.12-7.9-33.4-6.49-13.62-14.74-27.28-17.82-32.26,3.34.17,9.7.21,15.75-1.32,8.46-2.15,13.41-6.76,14.31-13.33,1.16-8.46-3.98-15.69-14.87-20.94-8-3.85-16.19-5.28-16.53-5.34-.64-.11-1.25.32-1.35.96-.11.64.32,1.25.96,1.35.32.05,31.38,5.57,29.53,23.15-.02.16-.04.33-.06.49-.78,5.63-5,9.46-12.56,11.38-8.12,2.06-17.18,1.1-17.27,1.09-.45-.05-.89.16-1.13.55-.24.38-.24.87,0,1.25.11.17,10.87,17.11,18.91,33.98,9.69,20.32,9.69,28.21,7.98,31.24-.96,1.71-2.72,2.9-5.22,3.54-2.53.64-5.7.67-9.13.18-2.38-5.89-5.37-11.45-8.65-15.85-4.02-5.38-9.03-8.59-13.4-8.57-2.51,0-4.63,1.09-6.13,3.14-1.04,1.41-1.39,3.04-1.04,4.85.86,4.52,6.05,9.19,10.62,12.06,4.51,2.83,10.81,5.36,16.92,6.46,2.98,7.69,4.89,15.85,5.02,22.52.09,4.35-1.24,7.54-3.83,9.22-3.74,2.42-10,1.78-17.62-1.82-11.83-5.59-25.57-17.52-39.45-33.99l-.34,3.22c13.62,15.86,27.09,27.37,38.78,32.9,8.38,3.96,15.45,4.55,19.9,1.67ZM31.74,29.23c-5.22-3.27-8.97-7.4-9.56-10.51-.22-1.16-.01-2.14.63-3.02,1.06-1.44,2.49-2.17,4.25-2.18,3.57-.01,7.99,2.91,11.51,7.63,2.92,3.91,5.6,8.77,7.8,13.95-4.97-1.06-10.22-3.11-14.63-5.87Z"/>
    <g>
      <path class="cls-4" d="M34.34,70.28c-.75.59-1.2,1.32-1.18,1.9,0,.29.14.51.37.68.14.1.31.13.49.09.5-.11,1.15-.74,1.66-1.6.43-.73.73-1.59.88-2.4-.83.38-1.6.84-2.22,1.33Z"/>
      <g>
        <path class="cls-4" d="M36.01,71.54c-.44.75-1.18,1.62-1.9,1.78-.29.06-.56.02-.79-.15-.34-.23-.52-.57-.54-.98-.02-.71.47-1.53,1.32-2.21.7-.55,1.58-1.06,2.53-1.48.06-.56.04-1.07-.07-1.48-.11-.4-.32-.68-.6-.83-.5-.26-1.78-.22-5.02,1.44-2.69,1.38-5.39,3.21-5.41,3.23-.06.04-.14.04-.2,0-.06-.04-.1-.11-.09-.18,0-.01.11-1.49-.26-2.79-.28-.96-.73-1.58-1.37-1.85-.02.05-.04.1-.06.15-1.57,3.9.31,8.34,4.21,9.91s8.34-.31,9.91-4.21c.47-1.17.63-2.4.52-3.58-.4.13-.81.28-1.2.44-.15,1-.53,2.03-.97,2.77Z"/>
        <path class="cls-4" d="M25.33,67.8c.28.97.3,2,.29,2.55.79-.52,2.97-1.92,5.14-3.04,2.76-1.42,4.52-1.89,5.37-1.44.38.2.64.55.79,1.06.12.42.15.91.1,1.42.37-.15.74-.28,1.11-.4-.38-2.58-2.09-4.9-4.69-5.95-3.73-1.51-7.96.16-9.69,3.72.73.31,1.27,1.02,1.58,2.09Z"/>
        <path class="cls-6" d="M37.02,68.33c.04-.51.02-1-.1-1.42-.14-.51-.41-.86-.79-1.06-.86-.45-2.61.02-5.37,1.44-2.18,1.12-4.35,2.52-5.14,3.04.01-.54-.01-1.57-.29-2.55-.3-1.07-.84-1.77-1.58-2.09-.06.11-.11.23-.16.35.63.26,1.09.88,1.37,1.85.37,1.31.26,2.78.26,2.79,0,.07.03.14.09.18.06.04.14.03.2,0,.03-.02,2.72-1.84,5.41-3.23,3.25-1.67,4.52-1.71,5.02-1.44.28.15.48.43.6.83.12.41.14.92.07,1.48-.94.41-1.83.92-2.53,1.48-.85.68-1.35,1.5-1.32,2.21.01.41.2.74.54.98.23.16.5.21.79.15.73-.16,1.46-1.02,1.9-1.78.44-.74.82-1.78.97-2.77.4-.17.8-.32,1.2-.44-.01-.13-.03-.26-.05-.38-.37.12-.74.25-1.11.4ZM35.68,71.34c-.51.86-1.16,1.49-1.66,1.6-.19.04-.35.01-.49-.09-.24-.16-.36-.39-.37-.68-.02-.58.43-1.31,1.18-1.9.62-.49,1.39-.95,2.22-1.33-.15.81-.45,1.67-.88,2.4Z"/>
      </g>
    </g>
    <g>
      <path d="M91.41,32.53c-.53.51-1.34.77-2.44.77h-1.8v3.91h-1.22v-9.36h3.02c1.06,0,1.86.25,2.41.77.55.51.83,1.17.83,1.97s-.27,1.42-.8,1.94ZM90.48,31.85c.32-.29.48-.72.48-1.26,0-1.15-.66-1.73-1.99-1.73h-1.8v3.44h1.8c.68,0,1.18-.15,1.5-.44Z"/>
      <path d="M100.39,33.98h-5.88c.04.73.29,1.29.75,1.7s1,.61,1.64.61c.53,0,.97-.12,1.32-.37.35-.25.6-.57.74-.99h1.32c-.2.71-.59,1.28-1.18,1.72-.59.44-1.32.67-2.2.67-.7,0-1.32-.16-1.87-.47-.55-.31-.98-.76-1.29-1.34s-.47-1.25-.47-2.01.15-1.43.46-2c.3-.57.73-1.01,1.28-1.32.55-.31,1.18-.46,1.9-.46s1.32.15,1.85.46c.54.3.95.72,1.24,1.25.29.53.44,1.13.44,1.8,0,.23-.01.48-.04.74ZM98.86,31.79c-.21-.33-.49-.59-.84-.76-.35-.17-.74-.26-1.17-.26-.62,0-1.14.2-1.58.59-.43.39-.68.94-.75,1.64h4.64c0-.46-.1-.87-.31-1.2Z"/>
      <path d="M103.13,37.04c-.45-.19-.8-.46-1.06-.8-.26-.34-.4-.74-.43-1.19h1.26c.04.37.21.67.52.9s.71.35,1.21.35c.46,0,.83-.1,1.1-.31.27-.21.4-.46.4-.78s-.14-.56-.43-.72c-.29-.16-.73-.31-1.33-.46-.55-.14-.99-.29-1.34-.44s-.64-.37-.89-.66c-.25-.29-.37-.67-.37-1.15,0-.38.11-.72.34-1.03s.54-.56.95-.75c.41-.18.88-.28,1.41-.28.81,0,1.47.21,1.97.62.5.41.77.98.81,1.69h-1.22c-.03-.38-.18-.69-.46-.93s-.66-.35-1.13-.35c-.44,0-.79.09-1.05.28-.26.19-.39.43-.39.74,0,.24.08.44.23.6.16.16.35.28.59.38s.57.2.99.32c.53.14.96.28,1.29.42s.62.35.85.62c.24.28.36.64.37,1.09,0,.4-.11.77-.34,1.09-.22.32-.54.58-.95.76s-.88.28-1.4.28c-.56,0-1.07-.1-1.52-.29Z"/>
      <path d="M109.05,31.52c.3-.57.72-1.01,1.25-1.32.53-.31,1.13-.47,1.79-.47s1.19.14,1.67.42c.48.28.83.63,1.05,1.04v-1.34h1.24v10.85h-1.24v-4.85c-.23.41-.59.76-1.07,1.05s-1.05.43-1.69.43-1.23-.16-1.76-.48c-.53-.32-.94-.77-1.25-1.36-.3-.58-.46-1.24-.46-1.99s.15-1.41.46-1.98ZM114.49,32.06c-.22-.41-.53-.73-.91-.95-.38-.22-.8-.33-1.25-.33s-.87.11-1.25.32-.68.53-.9.94c-.22.41-.34.9-.34,1.45s.11,1.05.34,1.47.52.73.9.95c.38.22.79.33,1.25.33s.87-.11,1.25-.33c.38-.22.68-.54.91-.95s.33-.9.33-1.46-.11-1.04-.33-1.45Z"/>
      <path d="M124.65,29.85v7.36h-1.22v-1.09c-.23.38-.56.67-.97.88s-.88.32-1.38.32c-.57,0-1.09-.12-1.54-.36-.46-.24-.82-.59-1.08-1.07-.26-.47-.4-1.05-.4-1.73v-4.31h1.21v4.15c0,.72.18,1.28.55,1.67.37.39.87.58,1.5.58s1.17-.2,1.54-.6c.38-.4.56-.99.56-1.76v-4.04h1.22Z"/>
      <path d="M126.76,28.41c-.16-.16-.24-.36-.24-.59s.08-.43.24-.59c.16-.16.36-.24.59-.24s.41.08.57.24c.16.16.24.36.24.59s-.08.43-.24.59c-.16.16-.35.24-.57.24s-.43-.08-.59-.24ZM127.94,29.85v7.36h-1.22v-7.36h1.22Z"/>
      <path d="M131.1,37.04c-.45-.19-.8-.46-1.06-.8-.26-.34-.4-.74-.43-1.19h1.26c.04.37.21.67.52.9s.71.35,1.21.35c.46,0,.83-.1,1.1-.31.27-.21.4-.46.4-.78s-.14-.56-.43-.72c-.29-.16-.73-.31-1.33-.46-.55-.14-.99-.29-1.34-.44s-.64-.37-.89-.66c-.25-.29-.37-.67-.37-1.15,0-.38.11-.72.34-1.03s.54-.56.95-.75c.41-.18.88-.28,1.41-.28.81,0,1.47.21,1.97.62.5.41.77.98.81,1.69h-1.22c-.03-.38-.18-.69-.46-.93s-.66-.35-1.13-.35c-.44,0-.79.09-1.05.28-.26.19-.39.43-.39.74,0,.24.08.44.23.6.16.16.35.28.59.38s.57.2.99.32c.53.14.96.28,1.29.42s.62.35.85.62c.24.28.36.64.37,1.09,0,.4-.11.77-.34,1.09-.22.32-.54.58-.95.76s-.88.28-1.4.28c-.56,0-1.07-.1-1.52-.29Z"/>
      <path d="M137.02,31.52c.3-.57.72-1.01,1.25-1.32.53-.31,1.13-.47,1.78-.47s1.2.14,1.68.42c.47.28.83.63,1.06,1.05v-1.34h1.24v7.36h-1.24v-1.37c-.24.43-.6.79-1.08,1.07-.48.28-1.04.42-1.67.42s-1.24-.16-1.77-.48c-.53-.32-.94-.77-1.25-1.36-.3-.58-.46-1.24-.46-1.99s.15-1.41.46-1.98ZM142.46,32.06c-.22-.41-.53-.73-.91-.95-.38-.22-.8-.33-1.25-.33s-.87.11-1.25.32-.68.53-.9.94c-.22.41-.34.9-.34,1.45s.11,1.05.34,1.47.52.73.9.95c.38.22.79.33,1.25.33s.87-.11,1.25-.33c.38-.22.68-.54.91-.95s.33-.9.33-1.46-.11-1.04-.33-1.45Z"/>
      <path d="M157.04,37.2h-1.22l-4.91-7.45v7.45h-1.22v-9.37h1.22l4.91,7.44v-7.44h1.22v9.37Z"/>
      <path d="M159.12,31.52c.3-.57.72-1.01,1.25-1.32.53-.31,1.13-.47,1.78-.47s1.2.14,1.68.42c.47.28.83.63,1.06,1.05v-1.34h1.24v7.36h-1.24v-1.37c-.24.43-.6.79-1.08,1.07-.48.28-1.04.42-1.67.42s-1.24-.16-1.77-.48c-.53-.32-.94-.77-1.25-1.36-.3-.58-.46-1.24-.46-1.99s.15-1.41.46-1.98ZM164.55,32.06c-.22-.41-.53-.73-.91-.95-.38-.22-.8-.33-1.25-.33s-.87.11-1.25.32-.68.53-.9.94c-.22.41-.34.9-.34,1.45s.11,1.05.34,1.47.52.73.9.95c.38.22.79.33,1.25.33s.87-.11,1.25-.33c.38-.22.68-.54.91-.95s.33-.9.33-1.46-.11-1.04-.33-1.45Z"/>
      <path d="M168.19,31.52c.3-.57.73-1.01,1.27-1.32.54-.31,1.16-.47,1.86-.47.9,0,1.65.22,2.23.66s.97,1.05,1.16,1.83h-1.32c-.12-.45-.37-.8-.73-1.06-.36-.26-.81-.39-1.35-.39-.7,0-1.26.24-1.69.72s-.64,1.16-.64,2.03.21,1.57.64,2.05.99.72,1.69.72c.54,0,.98-.12,1.34-.38.36-.25.6-.61.74-1.07h1.32c-.2.75-.59,1.35-1.18,1.81-.59.45-1.33.68-2.21.68-.7,0-1.32-.16-1.86-.47-.54-.31-.96-.76-1.27-1.33-.3-.57-.46-1.24-.46-2.01s.15-1.42.46-1.99Z"/>
      <path d="M176.38,28.41c-.16-.16-.24-.36-.24-.59s.08-.43.24-.59c.16-.16.36-.24.59-.24s.41.08.57.24c.16.16.24.36.24.59s-.08.43-.24.59c-.16.16-.35.24-.57.24s-.43-.08-.59-.24ZM177.56,29.85v7.36h-1.22v-7.36h1.22Z"/>
      <path d="M180.97,36.86c-.56-.31-1-.76-1.32-1.34s-.48-1.25-.48-2.01.16-1.42.49-1.99c.33-.58.77-1.02,1.33-1.33s1.19-.46,1.89-.46,1.33.16,1.89.46,1.01.75,1.34,1.32c.33.57.49,1.24.49,2s-.17,1.43-.5,2.01-.79,1.02-1.36,1.34c-.57.31-1.21.47-1.91.47s-1.31-.16-1.87-.47ZM184.08,35.94c.38-.21.7-.51.93-.93.24-.41.36-.91.36-1.5s-.12-1.09-.35-1.5c-.23-.41-.54-.72-.91-.92-.38-.2-.78-.3-1.22-.3s-.86.1-1.23.3c-.37.2-.67.51-.89.92-.22.41-.34.91-.34,1.5s.11,1.11.33,1.52c.22.41.51.72.88.92s.77.3,1.21.3.85-.1,1.24-.31Z"/>
      <path d="M193.99,30.53c.55.54.83,1.32.83,2.34v4.33h-1.21v-4.16c0-.73-.18-1.29-.55-1.68-.37-.39-.87-.58-1.5-.58s-1.16.2-1.54.6c-.38.4-.57.99-.57,1.76v4.07h-1.22v-7.36h1.22v1.05c.24-.38.57-.67.99-.87s.88-.31,1.38-.31c.89,0,1.62.27,2.17.81Z"/>
      <path d="M196.82,31.52c.3-.57.72-1.01,1.25-1.32.53-.31,1.13-.47,1.78-.47s1.2.14,1.68.42c.47.28.83.63,1.06,1.05v-1.34h1.24v7.36h-1.24v-1.37c-.24.43-.6.79-1.08,1.07-.48.28-1.04.42-1.67.42s-1.24-.16-1.77-.48c-.53-.32-.94-.77-1.25-1.36-.3-.58-.46-1.24-.46-1.99s.15-1.41.46-1.98ZM202.26,32.06c-.22-.41-.53-.73-.91-.95-.38-.22-.8-.33-1.25-.33s-.87.11-1.25.32-.68.53-.9.94c-.22.41-.34.9-.34,1.45s.11,1.05.34,1.47.52.73.9.95c.38.22.79.33,1.25.33s.87-.11,1.25-.33c.38-.22.68-.54.91-.95s.33-.9.33-1.46-.11-1.04-.33-1.45Z"/>
      <path d="M207.11,27.27v9.93h-1.22v-9.93h1.22Z"/>
      <path d="M212.78,31.52c.3-.57.72-1.01,1.25-1.32.53-.31,1.13-.47,1.79-.47.57,0,1.11.13,1.6.4s.87.61,1.13,1.04v-3.89h1.24v9.93h-1.24v-1.38c-.24.44-.6.8-1.07,1.08-.47.28-1.03.42-1.66.42s-1.25-.16-1.78-.48-.95-.77-1.25-1.36c-.3-.58-.46-1.24-.46-1.99s.15-1.41.46-1.98ZM218.21,32.06c-.22-.41-.53-.73-.91-.95-.38-.22-.8-.33-1.25-.33s-.87.11-1.25.32-.68.53-.9.94c-.22.41-.34.9-.34,1.45s.11,1.05.34,1.47.52.73.9.95c.38.22.79.33,1.25.33s.87-.11,1.25-.33c.38-.22.68-.54.91-.95s.33-.9.33-1.46-.11-1.04-.33-1.45Z"/>
      <path d="M228.52,33.98h-5.88c.04.73.29,1.29.75,1.7s1,.61,1.64.61c.53,0,.97-.12,1.32-.37.35-.25.6-.57.74-.99h1.32c-.2.71-.59,1.28-1.18,1.72-.59.44-1.32.67-2.2.67-.7,0-1.32-.16-1.87-.47-.55-.31-.98-.76-1.29-1.34s-.47-1.25-.47-2.01.15-1.43.46-2c.3-.57.73-1.01,1.28-1.32.55-.31,1.18-.46,1.9-.46s1.32.15,1.85.46c.54.3.95.72,1.24,1.25.29.53.44,1.13.44,1.8,0,.23-.01.48-.04.74ZM226.99,31.79c-.21-.33-.49-.59-.84-.76-.35-.17-.74-.26-1.17-.26-.62,0-1.14.2-1.58.59-.43.39-.68.94-.75,1.64h4.64c0-.46-.1-.87-.31-1.2Z"/>
      <path d="M92.56,48.42c-.25.45-.63.82-1.15,1.09-.52.28-1.16.42-1.93.42h-1.42v3.38h-2.29v-9.42h3.72c.75,0,1.39.13,1.91.39.52.26.91.62,1.17,1.07.26.46.39.98.39,1.57,0,.55-.12,1.04-.38,1.5ZM90.27,47.79c.21-.21.32-.5.32-.87s-.11-.67-.32-.87c-.21-.21-.54-.31-.98-.31h-1.25v2.36h1.25c.44,0,.76-.1.98-.31Z"/>
      <path d="M101.15,50.12h-5.19c.04.46.19.82.45,1.07.26.25.59.37.97.37.57,0,.97-.24,1.19-.73h2.44c-.12.49-.35.94-.68,1.33-.33.39-.74.7-1.23.93s-1.04.34-1.65.34c-.73,0-1.39-.16-1.96-.47s-1.02-.76-1.34-1.34c-.32-.58-.48-1.26-.48-2.04s.16-1.46.48-2.04c.32-.58.76-1.03,1.33-1.34.57-.31,1.23-.47,1.97-.47s1.37.15,1.93.46c.56.3,1,.74,1.32,1.3.32.56.48,1.22.48,1.97,0,.21-.01.44-.04.67ZM98.84,48.84c0-.39-.13-.71-.4-.94s-.6-.35-1.01-.35-.71.11-.97.33c-.26.22-.43.54-.49.95h2.87Z"/>
      <path d="M105.7,46.1c.4-.24.85-.36,1.34-.36v2.43h-.63c-.57,0-1,.12-1.29.37s-.43.68-.43,1.29v3.48h-2.29v-7.49h2.29v1.25c.27-.41.6-.74,1.01-.97Z"/>
      <path d="M108.16,47.53c.32-.58.76-1.03,1.33-1.34s1.22-.47,1.95-.47c.94,0,1.72.25,2.36.74s1.04,1.19,1.24,2.08h-2.44c-.21-.57-.6-.86-1.19-.86-.42,0-.76.16-1.01.49-.25.33-.38.79-.38,1.4s.13,1.08.38,1.4c.25.33.59.49,1.01.49.59,0,.99-.29,1.19-.86h2.44c-.2.88-.61,1.57-1.25,2.07-.63.5-1.42.75-2.35.75-.73,0-1.38-.16-1.95-.47s-1.01-.76-1.33-1.34c-.32-.58-.48-1.26-.48-2.04s.16-1.46.48-2.04Z"/>
      <path d="M123.28,50.12h-5.19c.04.46.19.82.45,1.07.26.25.59.37.97.37.57,0,.97-.24,1.19-.73h2.44c-.12.49-.35.94-.68,1.33-.33.39-.74.7-1.23.93s-1.04.34-1.65.34c-.73,0-1.39-.16-1.96-.47s-1.02-.76-1.34-1.34c-.32-.58-.48-1.26-.48-2.04s.16-1.46.48-2.04c.32-.58.76-1.03,1.33-1.34.57-.31,1.23-.47,1.97-.47s1.37.15,1.93.46c.56.3,1,.74,1.32,1.3.32.56.48,1.22.48,1.97,0,.21-.01.44-.04.67ZM120.97,48.84c0-.39-.13-.71-.4-.94s-.6-.35-1.01-.35-.71.11-.97.33c-.26.22-.43.54-.49.95h2.87Z"/>
      <path d="M127.75,46.04c.39-.21.85-.32,1.38-.32.62,0,1.18.16,1.68.47.5.31.9.76,1.19,1.34.29.58.44,1.26.44,2.03s-.15,1.45-.44,2.03c-.29.59-.69,1.04-1.19,1.36-.5.32-1.06.48-1.68.48-.52,0-.98-.11-1.38-.32-.4-.21-.71-.49-.93-.83v4.62h-2.29v-11.06h2.29v1.06c.22-.35.53-.63.93-.85ZM129.62,48.2c-.32-.33-.71-.49-1.17-.49s-.84.17-1.16.5c-.32.33-.48.78-.48,1.36s.16,1.03.48,1.36c.32.33.7.5,1.16.5s.85-.17,1.17-.5c.32-.34.48-.79.48-1.36s-.16-1.02-.48-1.35Z"/>
      <path d="M138.1,50.6h2.44c-.17.76-.51,1.38-1.02,1.87s-1.15.78-1.91.9v.5c.47,0,.87.13,1.22.38.35.25.52.64.52,1.15s-.18.9-.55,1.16c-.37.26-.81.4-1.32.4h-2.07v-1.26h1.76c.18,0,.31-.03.4-.08.09-.05.13-.14.13-.27s-.04-.21-.13-.26c-.09-.05-.22-.07-.4-.07h-.95v-1.64c-.92-.14-1.66-.55-2.21-1.23-.55-.67-.83-1.53-.83-2.57,0-.78.16-1.46.48-2.04.32-.58.76-1.03,1.33-1.34s1.22-.47,1.95-.47c.94,0,1.72.25,2.36.74s1.04,1.19,1.24,2.08h-2.44c-.21-.57-.6-.86-1.19-.86-.42,0-.76.16-1.01.49-.25.33-.38.79-.38,1.4s.13,1.08.38,1.4c.25.33.59.49,1.01.49.59,0,.99-.29,1.19-.86Z"/>
      <path d="M141.74,47.53c.29-.58.69-1.03,1.19-1.34s1.06-.47,1.68-.47c.53,0,.99.11,1.39.32.4.21.71.5.92.85v-1.06h2.29v7.49h-2.29v-1.06c-.22.35-.54.63-.93.85-.4.21-.86.32-1.39.32-.61,0-1.16-.16-1.66-.48s-.9-.77-1.19-1.36c-.29-.59-.44-1.26-.44-2.03s.15-1.45.44-2.03ZM144.7,43.2c.2,0,.37.03.52.09s.33.15.54.26c.16.09.29.15.39.19.1.04.2.06.31.06.33,0,.52-.2.58-.6h1.18c-.21,1.32-.83,1.99-1.85,1.99-.2,0-.37-.03-.52-.09-.15-.06-.33-.14-.54-.26-.16-.09-.29-.15-.39-.19s-.2-.06-.31-.06c-.33,0-.53.2-.59.6h-1.17c.21-1.32.83-1.99,1.85-1.99ZM146.44,48.21c-.32-.33-.71-.5-1.16-.5s-.84.16-1.16.49c-.32.33-.48.78-.48,1.35s.16,1.03.48,1.36c.32.33.71.5,1.16.5s.84-.17,1.16-.5.48-.78.48-1.36-.16-1.02-.48-1.36Z"/>
      <path d="M152.3,52.95c-.59-.31-1.05-.76-1.38-1.34-.33-.58-.5-1.26-.5-2.04s.17-1.45.51-2.03.81-1.04,1.4-1.35c.59-.31,1.25-.47,1.99-.47s1.4.16,1.99.47,1.06.76,1.4,1.35.51,1.26.51,2.03-.17,1.45-.52,2.03c-.34.59-.81,1.04-1.41,1.35s-1.26.47-1.99.47-1.39-.16-1.98-.47ZM155.41,50.95c.31-.32.46-.78.46-1.38s-.15-1.06-.45-1.38c-.3-.32-.67-.48-1.11-.48s-.82.16-1.11.48-.44.78-.44,1.39.15,1.06.44,1.38.66.48,1.09.48.81-.16,1.12-.48Z"/>
      <path d="M163.57,53.08c-.51-.22-.91-.53-1.21-.92-.29-.39-.46-.83-.5-1.31h2.27c.03.26.15.47.36.63s.48.24.79.24c.29,0,.51-.06.66-.17.16-.11.23-.26.23-.44,0-.21-.11-.37-.33-.48s-.59-.22-1.09-.34c-.54-.12-.98-.26-1.34-.4-.36-.14-.67-.36-.93-.66-.26-.3-.39-.7-.39-1.21,0-.43.12-.82.36-1.17.24-.35.59-.63,1.05-.84s1.01-.31,1.64-.31c.94,0,1.68.23,2.22.7.54.47.85,1.08.93,1.85h-2.12c-.04-.26-.15-.46-.34-.62s-.45-.23-.76-.23c-.27,0-.47.05-.62.15-.14.1-.21.24-.21.42,0,.21.11.38.34.48.23.11.58.21,1.07.32.55.14,1.01.28,1.36.42.35.14.66.36.92.67s.4.72.41,1.24c0,.44-.12.83-.37,1.17s-.6.62-1.06.81c-.46.2-1,.29-1.6.29-.65,0-1.23-.11-1.75-.34Z"/>
      <path d="M171.19,52.95c-.59-.31-1.05-.76-1.38-1.34-.33-.58-.5-1.26-.5-2.04s.17-1.45.51-2.03.81-1.04,1.4-1.35c.59-.31,1.25-.47,1.99-.47s1.4.16,1.99.47,1.06.76,1.4,1.35.51,1.26.51,2.03-.17,1.45-.52,2.03c-.34.59-.81,1.04-1.41,1.35s-1.26.47-1.99.47-1.39-.16-1.98-.47ZM174.29,50.95c.31-.32.46-.78.46-1.38s-.15-1.06-.45-1.38c-.3-.32-.67-.48-1.11-.48s-.82.16-1.11.48-.44.78-.44,1.39.15,1.06.44,1.38.66.48,1.09.48.81-.16,1.12-.48Z"/>
      <path d="M181.53,46.04c.4-.21.86-.32,1.38-.32.62,0,1.18.16,1.68.47.5.31.9.76,1.19,1.34.29.58.44,1.26.44,2.03s-.15,1.45-.44,2.03c-.29.59-.69,1.04-1.19,1.36-.5.32-1.06.48-1.68.48-.53,0-.99-.11-1.38-.32-.39-.21-.7-.49-.93-.84v1.05h-2.29v-9.93h2.29v3.5c.21-.35.52-.63.93-.85ZM183.4,48.2c-.32-.33-.71-.49-1.17-.49s-.84.17-1.16.5c-.32.33-.48.78-.48,1.36s.16,1.03.48,1.36c.32.33.7.5,1.16.5s.85-.17,1.17-.5c.32-.34.48-.79.48-1.36s-.16-1.02-.48-1.35Z"/>
      <path d="M190.73,46.1c.4-.24.85-.36,1.34-.36v2.43h-.63c-.57,0-1,.12-1.29.37s-.43.68-.43,1.29v3.48h-2.29v-7.49h2.29v1.25c.27-.41.6-.74,1.01-.97Z"/>
      <path d="M200.19,50.12h-5.19c.04.46.19.82.45,1.07.26.25.59.37.97.37.57,0,.97-.24,1.19-.73h2.44c-.12.49-.35.94-.68,1.33-.33.39-.74.7-1.23.93s-1.04.34-1.65.34c-.73,0-1.39-.16-1.96-.47s-1.02-.76-1.34-1.34c-.32-.58-.48-1.26-.48-2.04s.16-1.46.48-2.04c.32-.58.76-1.03,1.33-1.34.57-.31,1.23-.47,1.97-.47s1.37.15,1.93.46c.56.3,1,.74,1.32,1.3.32.56.48,1.22.48,1.97,0,.21-.01.44-.04.67ZM197.88,48.84c0-.39-.13-.71-.4-.94s-.6-.35-1.01-.35-.71.11-.97.33c-.26.22-.43.54-.49.95h2.87Z"/>
      <path d="M205.71,52.95c-.59-.31-1.05-.76-1.38-1.34-.33-.58-.5-1.26-.5-2.04s.17-1.45.51-2.03.81-1.04,1.4-1.35c.59-.31,1.25-.47,1.99-.47s1.4.16,1.99.47,1.06.76,1.4,1.35.51,1.26.51,2.03-.17,1.45-.52,2.03c-.34.59-.81,1.04-1.41,1.35s-1.26.47-1.99.47-1.39-.16-1.98-.47ZM208.81,50.95c.31-.32.46-.78.46-1.38s-.15-1.06-.45-1.38c-.3-.32-.67-.48-1.11-.48s-.82.16-1.11.48-.44.78-.44,1.39.15,1.06.44,1.38.66.48,1.09.48.81-.16,1.12-.48Z"/>
      <path d="M215.89,46.1c.4-.73.96-1.3,1.68-1.7.72-.41,1.54-.61,2.45-.61,1.12,0,2.08.29,2.87.89.8.59,1.33,1.4,1.6,2.42h-2.52c-.19-.39-.45-.69-.8-.9-.34-.21-.74-.31-1.17-.31-.71,0-1.28.25-1.72.74-.44.49-.66,1.15-.66,1.97s.22,1.48.66,1.97c.44.49,1.01.74,1.72.74.44,0,.83-.1,1.17-.31.34-.21.61-.5.8-.9h2.52c-.27,1.02-.8,1.82-1.6,2.41-.8.59-1.75.88-2.87.88-.91,0-1.73-.2-2.45-.61-.72-.41-1.28-.97-1.68-1.7s-.6-1.55-.6-2.48.2-1.76.6-2.49Z"/>
      <path d="M228.2,43.38v9.93h-2.29v-9.93h2.29Z"/>
      <path d="M230.03,44.69c-.25-.24-.38-.53-.38-.88s.13-.66.38-.89.58-.36.99-.36.72.12.97.36c.25.24.38.54.38.89s-.13.64-.38.88c-.26.24-.58.36-.97.36s-.73-.12-.99-.36ZM232.16,45.82v7.49h-2.29v-7.49h2.29Z"/>
      <path d="M245.6,46.59c.55.56.83,1.35.83,2.35v4.38h-2.28v-4.07c0-.48-.13-.86-.38-1.12s-.61-.4-1.05-.4-.8.13-1.05.4-.38.64-.38,1.12v4.07h-2.28v-4.07c0-.48-.13-.86-.38-1.12s-.61-.4-1.05-.4-.8.13-1.05.4-.38.64-.38,1.12v4.07h-2.29v-7.49h2.29v.94c.23-.31.54-.56.91-.75s.8-.28,1.28-.28c.56,0,1.07.12,1.51.36.44.24.79.59,1.04,1.03.26-.41.61-.75,1.06-1.01s.93-.39,1.46-.39c.93,0,1.67.28,2.22.85Z"/>
      <path d="M248.02,47.53c.29-.58.69-1.03,1.19-1.34s1.06-.47,1.68-.47c.53,0,.99.11,1.39.32.4.21.71.5.92.85v-1.06h2.29v7.49h-2.29v-1.06c-.22.35-.54.63-.93.85-.4.21-.86.32-1.39.32-.61,0-1.16-.16-1.66-.48s-.9-.77-1.19-1.36c-.29-.59-.44-1.26-.44-2.03s.15-1.45.44-2.03ZM252.72,48.21c-.32-.33-.71-.5-1.16-.5s-.84.16-1.16.49c-.32.33-.48.78-.48,1.35s.16,1.03.48,1.36c.32.33.71.5,1.16.5s.84-.17,1.16-.5.48-.78.48-1.36-.16-1.02-.48-1.36Z"/>
      <path d="M92.41,62.7c.52.57.79,1.35.79,2.34v4.38h-2.28v-4.07c0-.5-.13-.89-.39-1.17s-.61-.42-1.05-.42-.79.14-1.05.42-.39.67-.39,1.17v4.07h-2.29v-7.49h2.29v.99c.23-.33.55-.59.94-.79.39-.19.84-.29,1.33-.29.88,0,1.58.28,2.1.85Z"/>
      <path d="M94.78,63.63c.29-.58.69-1.03,1.19-1.34s1.06-.47,1.68-.47c.53,0,.99.11,1.39.32.4.21.71.5.92.85v-1.06h2.29v7.49h-2.29v-1.06c-.22.35-.54.63-.93.85-.4.21-.86.32-1.39.32-.61,0-1.16-.16-1.66-.48s-.9-.77-1.19-1.36c-.29-.59-.44-1.26-.44-2.03s.15-1.45.44-2.03ZM99.48,64.32c-.32-.33-.71-.5-1.16-.5s-.84.16-1.16.49c-.32.33-.48.78-.48,1.35s.16,1.03.48,1.36c.32.33.71.5,1.16.5s.84-.17,1.16-.5.48-.78.48-1.36-.16-1.02-.48-1.36Z"/>
      <path d="M105.21,69.19c-.51-.22-.91-.53-1.21-.92-.29-.39-.46-.83-.5-1.31h2.27c.03.26.15.47.36.63s.48.24.79.24c.29,0,.51-.06.66-.17.16-.11.23-.26.23-.44,0-.21-.11-.37-.33-.48s-.59-.22-1.09-.34c-.54-.12-.98-.26-1.34-.4-.36-.14-.67-.36-.93-.66-.26-.3-.39-.7-.39-1.21,0-.43.12-.82.36-1.17.24-.35.59-.63,1.05-.84s1.01-.31,1.64-.31c.94,0,1.68.23,2.22.7.54.47.85,1.08.93,1.85h-2.12c-.04-.26-.15-.46-.34-.62s-.45-.23-.76-.23c-.27,0-.47.05-.62.15-.14.1-.21.24-.21.42,0,.21.11.38.34.48.23.11.58.21,1.07.32.55.14,1.01.28,1.36.42.35.14.66.36.92.67s.4.72.41,1.24c0,.44-.12.83-.37,1.17s-.6.62-1.06.81c-.46.2-1,.29-1.6.29-.65,0-1.23-.11-1.75-.34Z"/>
      <path d="M116.5,59.99v5.64c0,.56.14,1,.42,1.3.28.3.68.46,1.22.46s.95-.15,1.23-.46c.29-.3.43-.74.43-1.3v-5.64h2.3v5.62c0,.84-.18,1.55-.54,2.13-.36.58-.84,1.02-1.44,1.32-.6.29-1.28.44-2.02.44s-1.41-.15-1.99-.44c-.59-.29-1.05-.73-1.39-1.32s-.51-1.3-.51-2.14v-5.62h2.29Z"/>
      <path d="M130.37,62.7c.52.57.79,1.35.79,2.34v4.38h-2.28v-4.07c0-.5-.13-.89-.39-1.17s-.61-.42-1.05-.42-.79.14-1.05.42-.39.67-.39,1.17v4.07h-2.29v-7.49h2.29v.99c.23-.33.55-.59.94-.79.39-.19.84-.29,1.33-.29.88,0,1.58.28,2.1.85Z"/>
      <path d="M132.92,60.79c-.25-.24-.38-.53-.38-.88s.13-.66.38-.89.58-.36.99-.36.72.12.97.36c.25.24.38.54.38.89s-.13.64-.38.88c-.26.24-.58.36-.97.36s-.73-.12-.99-.36ZM135.05,61.93v7.49h-2.29v-7.49h2.29Z"/>
      <path d="M136.7,63.63c.29-.58.69-1.03,1.19-1.34s1.06-.47,1.68-.47c.49,0,.94.1,1.35.31s.73.48.96.83v-3.48h2.29v9.93h-2.29v-1.07c-.21.36-.52.64-.92.86-.4.21-.86.32-1.39.32-.62,0-1.18-.16-1.68-.48s-.9-.77-1.19-1.36c-.29-.59-.44-1.26-.44-2.03s.15-1.45.44-2.03ZM141.39,64.32c-.32-.33-.71-.5-1.16-.5s-.84.16-1.16.49c-.32.33-.48.78-.48,1.35s.16,1.03.48,1.36c.32.33.71.5,1.16.5s.84-.17,1.16-.5.48-.78.48-1.36-.16-1.02-.48-1.36Z"/>
      <path d="M145.81,63.63c.29-.58.69-1.03,1.19-1.34s1.06-.47,1.68-.47c.53,0,.99.11,1.39.32.4.21.71.5.92.85v-1.06h2.29v7.49h-2.29v-1.06c-.22.35-.54.63-.93.85-.4.21-.86.32-1.39.32-.61,0-1.16-.16-1.66-.48s-.9-.77-1.19-1.36c-.29-.59-.44-1.26-.44-2.03s.15-1.45.44-2.03ZM150.51,64.32c-.32-.33-.71-.5-1.16-.5s-.84.16-1.16.49c-.32.33-.48.78-.48,1.35s.16,1.03.48,1.36c.32.33.71.5,1.16.5s.84-.17,1.16-.5.48-.78.48-1.36-.16-1.02-.48-1.36Z"/>
      <path d="M154.92,63.63c.29-.58.69-1.03,1.19-1.34s1.06-.47,1.68-.47c.49,0,.94.1,1.35.31s.73.48.96.83v-3.48h2.29v9.93h-2.29v-1.07c-.21.36-.52.64-.92.86-.4.21-.86.32-1.39.32-.62,0-1.18-.16-1.68-.48s-.9-.77-1.19-1.36c-.29-.59-.44-1.26-.44-2.03s.15-1.45.44-2.03ZM159.62,64.32c-.32-.33-.71-.5-1.16-.5s-.84.16-1.16.49c-.32.33-.48.78-.48,1.35s.16,1.03.48,1.36c.32.33.71.5,1.16.5s.84-.17,1.16-.5.48-.78.48-1.36-.16-1.02-.48-1.36Z"/>
      <path d="M171.08,66.22h-5.19c.04.46.19.82.45,1.07.26.25.59.37.97.37.57,0,.97-.24,1.19-.73h2.44c-.12.49-.35.94-.68,1.33-.33.39-.74.7-1.23.93s-1.04.34-1.65.34c-.73,0-1.39-.16-1.96-.47s-1.02-.76-1.34-1.34c-.32-.58-.48-1.26-.48-2.04s.16-1.46.48-2.04c.32-.58.76-1.03,1.33-1.34.57-.31,1.23-.47,1.97-.47s1.37.15,1.93.46c.56.3,1,.74,1.32,1.3.32.56.48,1.22.48,1.97,0,.21-.01.44-.04.67ZM168.77,64.95c0-.39-.13-.71-.4-.94s-.6-.35-1.01-.35-.71.11-.97.33c-.26.22-.43.54-.49.95h2.87Z"/>
      <path d="M173.62,69.19c-.51-.22-.91-.53-1.21-.92-.29-.39-.46-.83-.5-1.31h2.27c.03.26.15.47.36.63s.48.24.79.24c.29,0,.51-.06.66-.17.16-.11.23-.26.23-.44,0-.21-.11-.37-.33-.48s-.59-.22-1.09-.34c-.54-.12-.98-.26-1.34-.4-.36-.14-.67-.36-.93-.66-.26-.3-.39-.7-.39-1.21,0-.43.12-.82.36-1.17.24-.35.59-.63,1.05-.84s1.01-.31,1.64-.31c.94,0,1.68.23,2.22.7.54.47.85,1.08.93,1.85h-2.12c-.04-.26-.15-.46-.34-.62s-.45-.23-.76-.23c-.27,0-.47.05-.62.15-.14.1-.21.24-.21.42,0,.21.11.38.34.48.23.11.58.21,1.07.32.55.14,1.01.28,1.36.42.35.14.66.36.92.67s.4.72.41,1.24c0,.44-.12.83-.37,1.17s-.6.62-1.06.81c-.46.2-1,.29-1.6.29-.65,0-1.23-.11-1.75-.34Z"/>
      <path d="M182.64,63.63c.29-.58.69-1.03,1.19-1.34s1.06-.47,1.68-.47c.49,0,.94.1,1.35.31s.73.48.96.83v-3.48h2.29v9.93h-2.29v-1.07c-.21.36-.52.64-.92.86-.4.21-.86.32-1.39.32-.62,0-1.18-.16-1.68-.48s-.9-.77-1.19-1.36c-.29-.59-.44-1.26-.44-2.03s.15-1.45.44-2.03ZM187.34,64.32c-.32-.33-.71-.5-1.16-.5s-.84.16-1.16.49c-.32.33-.48.78-.48,1.35s.16,1.03.48,1.36c.32.33.71.5,1.16.5s.84-.17,1.16-.5.48-.78.48-1.36-.16-1.02-.48-1.36Z"/>
      <path d="M193.2,69.05c-.59-.31-1.05-.76-1.38-1.34-.33-.58-.5-1.26-.5-2.04s.17-1.45.51-2.03.81-1.04,1.4-1.35c.59-.31,1.25-.47,1.99-.47s1.4.16,1.99.47,1.06.76,1.4,1.35.51,1.26.51,2.03-.17,1.45-.52,2.03c-.34.59-.81,1.04-1.41,1.35s-1.26.47-1.99.47-1.39-.16-1.98-.47ZM196.3,67.05c.31-.32.46-.78.46-1.38s-.15-1.06-.45-1.38c-.3-.32-.67-.48-1.11-.48s-.82.16-1.11.48-.44.78-.44,1.39.15,1.06.44,1.38.66.48,1.09.48.81-.16,1.12-.48Z"/>
      <path d="M204.72,69.18c-.55-.22-.98-.55-1.31-.99-.33-.44-.5-.97-.52-1.58h2.44c.04.35.16.62.36.8.21.18.47.28.8.28s.61-.08.81-.23.29-.37.29-.65c0-.23-.08-.42-.23-.58s-.35-.28-.58-.38c-.23-.1-.55-.21-.97-.33-.61-.19-1.11-.38-1.49-.56-.38-.19-.72-.46-.99-.83-.28-.37-.42-.85-.42-1.44,0-.88.32-1.56.95-2.06.63-.5,1.46-.75,2.48-.75s1.88.25,2.51.75c.64.5.98,1.19,1.02,2.07h-2.48c-.02-.3-.13-.54-.33-.72-.21-.17-.47-.26-.79-.26-.28,0-.5.07-.67.22-.17.15-.26.36-.26.64,0,.3.14.54.43.71s.73.35,1.34.55c.61.21,1.1.4,1.48.59.38.19.71.46.99.82.28.36.42.82.42,1.38s-.14,1.03-.41,1.46c-.27.44-.67.79-1.19,1.05-.52.26-1.13.39-1.84.39s-1.31-.11-1.85-.33Z"/>
      <path d="M218.44,66.22h-5.19c.04.46.19.82.45,1.07.26.25.59.37.97.37.57,0,.97-.24,1.19-.73h2.44c-.12.49-.35.94-.68,1.33-.33.39-.74.7-1.23.93s-1.04.34-1.65.34c-.73,0-1.39-.16-1.96-.47s-1.02-.76-1.34-1.34c-.32-.58-.48-1.26-.48-2.04s.16-1.46.48-2.04c.32-.58.76-1.03,1.33-1.34.57-.31,1.23-.47,1.97-.47s1.37.15,1.93.46c.56.3,1,.74,1.32,1.3.32.56.48,1.22.48,1.97,0,.21-.01.44-.04.67ZM216.13,64.95c0-.39-.13-.71-.4-.94s-.6-.35-1.01-.35-.71.11-.97.33c-.26.22-.43.54-.49.95h2.87Z"/>
      <path d="M226.35,62.7c.52.57.79,1.35.79,2.34v4.38h-2.28v-4.07c0-.5-.13-.89-.39-1.17s-.61-.42-1.05-.42-.79.14-1.05.42-.39.67-.39,1.17v4.07h-2.29v-7.49h2.29v.99c.23-.33.55-.59.94-.79.39-.19.84-.29,1.33-.29.88,0,1.58.28,2.1.85Z"/>
      <path d="M228.72,63.63c.29-.58.69-1.03,1.19-1.34s1.06-.47,1.68-.47c.53,0,.99.11,1.39.32.4.21.71.5.92.85v-1.06h2.29v7.49h-2.29v-1.06c-.22.35-.54.63-.93.85-.4.21-.86.32-1.39.32-.61,0-1.16-.16-1.66-.48s-.9-.77-1.19-1.36c-.29-.59-.44-1.26-.44-2.03s.15-1.45.44-2.03ZM233.41,64.32c-.32-.33-.71-.5-1.16-.5s-.84.16-1.16.49c-.32.33-.48.78-.48,1.35s.16,1.03.48,1.36c.32.33.71.5,1.16.5s.84-.17,1.16-.5.48-.78.48-1.36-.16-1.02-.48-1.36Z"/>
      <path d="M237.87,63.63c.32-.58.76-1.03,1.33-1.34s1.22-.47,1.95-.47c.94,0,1.72.25,2.36.74s1.04,1.19,1.24,2.08h-2.44c-.21-.57-.6-.86-1.19-.86-.42,0-.76.16-1.01.49-.25.33-.38.79-.38,1.4s.13,1.08.38,1.4c.25.33.59.49,1.01.49.59,0,.99-.29,1.19-.86h2.44c-.2.88-.61,1.57-1.25,2.07-.63.5-1.42.75-2.35.75-.73,0-1.38-.16-1.95-.47s-1.01-.76-1.33-1.34c-.32-.58-.48-1.26-.48-2.04s.16-1.46.48-2.04Z"/>
    </g>
    <path class="cls-1" d="M285.25,167.34c4.71-2.54,7.43-7.61,7.86-14.66.54-8.89-1-19.81-3.97-30.39,4.2.82,8.28,1.04,11.87.43,4.34-.74,7.55-2.61,9.55-5.57,4.52-6.7,2.22-21.76-7.04-46.04-7.3-19.13-16.96-38.5-20.58-45.57,4.5.6,13.1,1.35,21.45-.07,11.67-1.98,18.87-7.67,20.81-16.47,2.5-11.31-3.66-21.65-17.83-29.94-10.4-6.08-21.31-8.9-21.77-9.02-.85-.22-1.72.3-1.94,1.15-.22.85.3,1.72,1.15,1.94.42.11,41.83,10.96,37.41,34.53-.04.22-.09.44-.13.65-1.67,7.53-7.8,12.25-18.23,14.02-11.21,1.9-23.35-.39-23.47-.42-.6-.12-1.22.12-1.58.62-.36.49-.41,1.15-.13,1.69.13.24,12.83,24.33,21.87,48.02,10.89,28.54,10.02,39.2,7.38,43.12-1.49,2.21-3.99,3.63-7.44,4.21-3.49.59-7.79.29-12.37-.75-2.58-8.23-6.01-16.07-9.97-22.38-4.85-7.72-11.28-12.6-17.19-13.06-3.39-.26-6.38.97-8.63,3.57-1.56,1.79-2.21,3.96-1.94,6.44.67,6.2,7.18,13.09,13.05,17.47,5.79,4.32,14.03,8.42,22.18,10.59,3.19,10.73,4.88,21.97,4.33,31.01-.36,5.9-2.5,10.06-6.19,12.05-5.33,2.87-13.72,1.31-23.63-4.39-15.39-8.85-32.67-26.48-49.64-50.28l-.81,4.31c16.68,22.93,33.64,39.98,48.86,48.73,10.9,6.27,20.4,7.84,26.73,4.43ZM265.33,108.33c-6.7-5-11.32-10.99-11.79-15.26-.17-1.59.21-2.9,1.18-4.01,1.59-1.83,3.6-2.67,5.98-2.48,4.84.37,10.48,4.81,14.74,11.57,3.53,5.61,6.61,12.47,9.03,19.72-6.6-1.98-13.48-5.32-19.14-9.54Z"/>
    <g>
      <path d="M337.79,58.42c-.08,0-.15-.01-.22-.01-1.14,0-1.91.44-1.91,1.24s.79,1.36,1.91,1.36c.07,0,.14,0,.22-.01v1.02h0c-.07,0-.14,0-.22,0-1.42,0-2.93-.49-3.33-1.71v1.71h-1.54l-2.66-2.95v2.95h-2.25c-1.65,0-3.41-.68-3.41-2.38,0-1.48,1.54-2.17,3.09-2.25v1.02c-.95.08-1.57.51-1.57,1.23,0,.79.78,1.36,1.89,1.36h.72v-3.62c.84,0,1.68.3,2.38,1.07.67.75,1.85,2.05,1.85,2.05v-3.12h1.51v1.64c.4-1.14,1.91-1.64,3.33-1.64.07,0,.15,0,.22,0v1.02Z"/>
      <path d="M349.45,59.71h-1.82c.1-.47.42-.77.92-.77s.82.31.9.77M354.88,59.98c0-.62.64-1.11,1.44-1.11.1,0,.19,0,.28.02v-.78c-.17-.02-.35-.03-.55-.03-1.37,0-2.4.82-2.4,1.91,0,.08,0,.16.02.24-.2-.35-.64-.52-1.29-.66-.81-.16-.92-.24-.9-.41.02-.17.29-.32.69-.32.26,0,.61.06.91.21v-.82c-.3-.09-.62-.15-.97-.15-1.02,0-1.7.49-1.76,1.16,0,.01,0,.02,0,.03-.24-.67-.81-1.18-1.81-1.18-1.19,0-2,.87-2,1.93,0,.06.01.11.01.16-.19-.48-.74-.73-1.59-.92-.91-.2-1.14-.29-1.14-.59h0c0-.23.23-.4.68-.4s.8.16,1.26.43v-1.06c-.4-.16-.75-.24-1.24-.24-1.08,0-1.84.54-1.84,1.35h0c0,.9.68,1.15,1.75,1.38.88.19,1.06.32,1.06.57h0c0,.28-.29.44-.76.44-.6,0-1.13-.23-1.61-.57l-.68.7c.63.48,1.47.74,2.27.74,1.13,0,1.93-.5,1.93-1.39.24.78.94,1.3,1.9,1.3.18,0,.44,0,.87-.11v-.81c-.4.12-.57.13-.81.12-.47-.02-.85-.29-.96-.75h2.84c0-.1.01-.16.01-.26h0c0-.12,0-.23-.02-.33.21.31.68.44,1.35.57.79.16.84.28.84.47,0,.16-.21.35-.68.34-.48-.02-1.04-.16-1.48-.4v.93c.45.2,1.03.33,1.48.33,1.07,0,1.81-.63,1.81-1.31,0-.03,0-.05,0-.07.19.46.56.8.99,1.01.42.21.87.27,1.24.27.22,0,.41-.01.59-.04v-.79c-.09.02-.19.02-.28.02-.79,0-1.44-.5-1.44-1.11"/>
      <path d="M352.04,36.81c-1.64-1.13-3.61-2.02-5.78-2.55-.54-.13-1.08-.25-1.63-.33-.02,0-.04,0-.06,0-.79.58-1.52,1.23-2.18,1.92.73-.11,1.47-.17,2.23-.2,2.65-.1,5.16.34,7.43,1.16"/>
      <path d="M341.7,42.11c1.03-.76,2.16-1.44,3.37-2.01,3-1.41,6.13-2.01,9.09-1.88-2.55-1.12-5.47-1.72-8.56-1.61-1.52.06-2.99.28-4.39.65-.7.93-1.27,1.94-1.71,2.99.67.66,1.41,1.28,2.19,1.86"/>
      <path d="M338.54,45.05c.81-.95,1.75-1.84,2.78-2.64-.71-.51-1.38-1.06-2-1.65-.5,1.36-.77,2.8-.78,4.29"/>
      <path d="M339.3,39.53c.34-.71.72-1.4,1.14-2.05-.88.27-1.73.59-2.53.98.38.49.8.96,1.23,1.41.05-.12.1-.23.16-.35"/>
      <path d="M349.69,50.16c-.18.94-1.15,1.08-1.37,1.09-1.57.08-1.62-.99-1.1-1.32.71-.44,2.47-.19,2.47-.19,0,.06.02.22,0,.42M336.54,48.7h-3.11c.16-.83.72-1.37,1.57-1.37s1.41.55,1.53,1.37M353.87,48.92v-.03c0-1.28,1.1-2.29,2.51-2.29.08,0,.15,0,.22,0v-1.54c-.07,0-.13,0-.2,0-2.45,0-4.37,1.31-4.77,3.14-.17-1.45-1.17-2.3-3.21-2.3-.09,0-.41,0-.49,0v1.55c.4,0,.95.07,1.2.2.36.19.55.51.56.94-.49-.06-1.05-.1-1.53-.11-1.92-.05-2.89.57-3.12,1.56v-1.02c0-1.74-1.06-3.09-3.31-3.09-2.07,0-3.13,1.15-3.29,2.68-.26-1.51-1.34-2.75-3.43-2.75s-3.59,1.51-3.59,3.34v.02c0,.05,0,.1,0,.15-.42-.7-1.36-1.08-2.74-1.38-1.63-.35-1.86-.51-1.86-1.03v-.02c0-.38.42-.68,1.21-.68.41,0,.93.11,1.31.25v-1.64c-.35-.06-.88-.13-1.28-.13-1.93,0-3.3.94-3.3,2.36v.02c0,1.56,1.22,1.99,3.12,2.4,1.58.34,1.72.56,1.72,1v.02c0,.46-.51.74-1.36.74-1.08,0-1.79-.37-2.64-.95l-1.23,1.22c1.13.84,2.4,1.25,3.83,1.25,1.98,0,3.38-.83,3.46-2.31.53,1.26,1.87,2.06,3.54,2.06.06,0,.27,0,.33,0v-1.46c-.05,0-.25.01-.3.01-.92,0-1.57-.43-1.78-1.26h4.95v2.6h2.08v-3.53c.04-.64.29-1.4,1.23-1.4s1.21.76,1.25,1.4v3.53h2.06v-1.41c.24.97,1.25,1.5,2.44,1.5,1,0,1.7-.32,2.2-.82v.74h1.99v-2.68c.46,1.74,2.36,3.01,4.7,3.01.08,0,.16,0,.24,0v-1.54s-.07,0-.11,0c-1.52,0-2.62-.97-2.62-2.31"/>
    </g>
    <g>
      <circle class="cls-5" cx="293.09" cy="51.23" r="5.34"/>
      <g>
        <circle class="cls-1" cx="290.52" cy="51.23" r=".72"/>
        <circle class="cls-1" cx="293.09" cy="51.23" r=".72"/>
        <circle class="cls-1" cx="295.66" cy="51.23" r=".72"/>
      </g>
    </g>
  </g>
</svg>