<?xml version="1.0" encoding="UTF-8"?>
<svg id="Camada_1" data-name="Camada 1" xmlns="http://www.w3.org/2000/svg" xmlns:xlink="http://www.w3.org/1999/xlink" viewBox="0 0 728 90">
  <defs>
    <style>
      .cls-1 {
        fill: #fff;
      }

      .cls-2 {
        fill: none;
      }

      .cls-3 {
        fill: #fb1366;
      }

      .cls-4 {
        fill: #f78b1f;
      }

      .cls-5 {
        fill: #e7316a;
      }

      .cls-6 {
        fill: #34efda;
      }

      .cls-7 {
        clip-path: url(#clippath);
      }
    </style>
    <clipPath id="clippath">
      <rect class="cls-2" width="728" height="90"/>
    </clipPath>
  </defs>
  <g class="cls-7">
    <rect class="cls-6" x="-2.87" y="-4.14" width="737.36" height="96.93"/>
    <path class="cls-3" d="M54.45,77.35c3.87-2.5,5.85-7.04,5.73-13.13-.15-7.66-2.23-16.94-5.52-25.8,3.66.41,7.18.32,10.22-.45,3.67-.93,6.3-2.77,7.81-5.44,3.41-6.07.4-18.83-9.23-39.03-7.59-15.91-17.22-31.87-20.82-37.69,3.9.2,11.33.25,18.4-1.54,9.88-2.51,15.66-7.89,16.72-15.58,1.36-9.88-4.65-18.33-17.38-24.46-9.35-4.5-18.91-6.16-19.31-6.23-.75-.13-1.45.37-1.58,1.12-.13.75.37,1.46,1.12,1.58.37.06,36.66,6.51,34.5,27.04-.02.19-.04.38-.07.57-.91,6.58-5.85,11.05-14.68,13.29-9.49,2.41-20.07,1.28-20.17,1.27-.52-.06-1.04.19-1.31.64-.28.45-.28,1.02,0,1.46.13.2,12.7,19.99,22.1,39.7,11.32,23.74,11.32,32.95,9.32,36.5-1.13,2-3.18,3.39-6.09,4.13-2.95.75-6.66.78-10.67.21-2.79-6.88-6.27-13.38-10.11-18.51-4.7-6.29-10.55-10.03-15.66-10.01-2.93.01-5.41,1.28-7.16,3.67-1.21,1.65-1.62,3.55-1.22,5.67,1,5.28,7.07,10.74,12.41,14.09,5.27,3.31,12.63,6.26,19.77,7.55,3.48,8.98,5.71,18.51,5.86,26.31.1,5.09-1.45,8.81-4.48,10.77-4.37,2.83-11.68,2.07-20.59-2.13-13.83-6.53-29.87-20.47-46.09-39.71l-.39,3.76c15.91,18.53,31.64,31.98,45.31,38.43,9.79,4.63,18.05,5.32,23.25,1.95ZM33.26,28.09c-6.1-3.82-10.48-8.64-11.17-12.28-.26-1.35-.02-2.51.73-3.53,1.24-1.68,2.91-2.54,4.96-2.55,4.18-.02,9.33,3.4,13.45,8.91,3.41,4.57,6.54,10.25,9.12,16.3-5.81-1.24-11.94-3.63-17.09-6.86Z"/>
    <g>
      <path class="cls-4" d="M36.29,76.04c-.87.69-1.4,1.55-1.38,2.22.01.33.16.6.44.79.17.12.36.15.57.1.59-.13,1.34-.86,1.94-1.87.5-.85.86-1.86,1.03-2.8-.97.45-1.87.98-2.6,1.56Z"/>
      <g>
        <path class="cls-4" d="M38.24,77.51c-.52.88-1.37,1.89-2.22,2.08-.34.08-.65.02-.92-.17-.4-.27-.61-.67-.63-1.14-.03-.83.55-1.79,1.55-2.58.81-.65,1.85-1.24,2.95-1.73.07-.65.05-1.25-.09-1.73-.13-.47-.37-.79-.7-.97-.58-.31-2.08-.26-5.87,1.69-3.15,1.62-6.29,3.75-6.33,3.77-.07.05-.16.05-.24,0-.07-.04-.12-.12-.11-.21,0-.02.13-1.74-.3-3.26-.32-1.13-.86-1.85-1.6-2.16-.02.06-.05.11-.07.17-1.84,4.56.37,9.74,4.92,11.58s9.74-.37,11.58-4.92c.55-1.37.74-2.8.61-4.18-.47.15-.94.32-1.41.52-.18,1.16-.62,2.37-1.13,3.24Z"/>
        <path class="cls-4" d="M25.76,73.14c.32,1.14.35,2.34.34,2.97.93-.61,3.46-2.25,6.01-3.55,3.23-1.66,5.28-2.21,6.28-1.68.44.23.75.65.92,1.24.14.49.17,1.06.12,1.65.43-.17.86-.33,1.29-.46-.45-3.02-2.44-5.73-5.48-6.95-4.36-1.76-9.3.19-11.32,4.35.86.37,1.49,1.19,1.84,2.44Z"/>
        <path class="cls-6" d="M39.43,73.77c.05-.6.02-1.16-.12-1.65-.17-.59-.48-1.01-.92-1.24-1-.52-3.05.03-6.28,1.68-2.54,1.31-5.08,2.94-6.01,3.55.01-.63-.01-1.84-.34-2.97-.36-1.24-.99-2.07-1.84-2.44-.06.13-.13.27-.18.4.74.31,1.28,1.03,1.6,2.16.44,1.53.3,3.25.3,3.26,0,.09.04.17.11.21.07.04.17.04.24,0,.03-.02,3.18-2.15,6.33-3.77,3.79-1.95,5.28-1.99,5.87-1.69.33.17.56.5.7.97.14.47.16,1.08.09,1.73-1.1.48-2.14,1.08-2.95,1.73-1,.79-1.57,1.76-1.55,2.58.02.47.23.87.63,1.14.27.19.58.25.92.17.85-.19,1.71-1.2,2.22-2.08.51-.87.95-2.08,1.13-3.24.46-.2.94-.37,1.41-.52-.01-.15-.03-.3-.05-.45-.43.13-.87.29-1.29.46ZM37.86,77.29c-.59,1.01-1.35,1.74-1.94,1.87-.22.05-.41.01-.57-.1-.28-.19-.43-.46-.44-.79-.02-.68.51-1.53,1.38-2.22.72-.58,1.63-1.11,2.6-1.56-.17.95-.53,1.95-1.03,2.8Z"/>
      </g>
    </g>
    <g>
      <path d="M147.95,20.16c-.81.78-2.04,1.17-3.7,1.17h-2.73v5.93h-1.86v-14.21h4.59c1.6,0,2.82.39,3.66,1.16.84.78,1.25,1.77,1.25,3s-.4,2.17-1.21,2.95ZM146.53,19.13c.49-.45.73-1.09.73-1.92,0-1.75-1.01-2.63-3.02-2.63h-2.73v5.22h2.73c1.03,0,1.79-.22,2.28-.67Z"/>
      <path d="M161.6,22.38h-8.93c.07,1.1.45,1.96,1.13,2.58.69.62,1.52.93,2.5.93.8,0,1.47-.19,2.01-.56s.91-.87,1.13-1.5h2c-.3,1.07-.9,1.95-1.79,2.62s-2.01,1.01-3.34,1.01c-1.06,0-2.01-.24-2.84-.71-.84-.48-1.49-1.15-1.97-2.03-.48-.88-.71-1.89-.71-3.05s.23-2.17.69-3.04c.46-.87,1.11-1.54,1.95-2.01.84-.47,1.8-.7,2.89-.7s2,.23,2.81.69,1.44,1.1,1.89,1.91c.44.81.66,1.72.66,2.74,0,.35-.02.73-.06,1.12ZM159.28,19.04c-.31-.51-.74-.9-1.27-1.16-.54-.27-1.13-.4-1.78-.4-.94,0-1.74.3-2.4.9-.66.6-1.04,1.43-1.13,2.49h7.06c0-.71-.16-1.32-.47-1.83Z"/>
      <path d="M165.76,27.02c-.68-.29-1.22-.7-1.61-1.22-.39-.52-.61-1.12-.65-1.8h1.92c.05.56.32,1.01.79,1.37.47.35,1.08.53,1.85.53.71,0,1.26-.16,1.67-.47.41-.31.61-.71.61-1.18s-.22-.85-.65-1.09c-.44-.24-1.11-.47-2.02-.7-.83-.22-1.51-.44-2.03-.66-.52-.22-.97-.56-1.35-1-.37-.44-.56-1.02-.56-1.74,0-.57.17-1.09.51-1.57.34-.48.82-.85,1.45-1.13s1.34-.42,2.14-.42c1.24,0,2.24.31,3,.94.76.63,1.17,1.48,1.22,2.57h-1.86c-.04-.58-.28-1.05-.7-1.41s-1-.53-1.72-.53c-.67,0-1.2.14-1.59.43-.39.29-.59.66-.59,1.12,0,.37.12.67.36.91.24.24.54.43.9.57s.86.3,1.5.48c.8.22,1.45.43,1.96.64.5.21.93.53,1.29.95.36.42.55.97.56,1.65,0,.61-.17,1.16-.51,1.65s-.82.87-1.44,1.15c-.62.28-1.33.42-2.13.42-.86,0-1.62-.15-2.3-.44Z"/>
      <path d="M174.76,18.63c.46-.86,1.1-1.53,1.91-2.01.81-.48,1.72-.71,2.72-.71s1.81.21,2.54.64c.73.43,1.26.96,1.6,1.58v-2.04h1.88v16.48h-1.88v-7.36c-.35.62-.9,1.16-1.63,1.59-.73.43-1.59.65-2.57.65s-1.87-.25-2.67-.73c-.8-.49-1.44-1.18-1.9-2.06-.46-.88-.69-1.89-.69-3.02s.23-2.14.69-3.01ZM183.02,19.46c-.34-.62-.8-1.1-1.38-1.44-.58-.33-1.21-.5-1.91-.5s-1.33.16-1.9.49c-.57.33-1.03.8-1.37,1.43-.34.62-.51,1.36-.51,2.2s.17,1.6.51,2.23c.34.63.8,1.12,1.37,1.45.57.33,1.2.5,1.9.5s1.33-.17,1.91-.5c.58-.33,1.04-.82,1.38-1.45.34-.63.51-1.37.51-2.21s-.17-1.58-.51-2.2Z"/>
      <path d="M198.46,16.1v11.18h-1.86v-1.65c-.35.57-.85,1.02-1.48,1.34s-1.33.48-2.09.48c-.87,0-1.65-.18-2.35-.54s-1.24-.9-1.64-1.62c-.4-.72-.6-1.6-.6-2.63v-6.55h1.84v6.3c0,1.1.28,1.95.84,2.54.56.59,1.32.89,2.28.89s1.77-.31,2.35-.92c.57-.61.86-1.5.86-2.67v-6.14h1.86Z"/>
      <path d="M201.66,13.91c-.24-.25-.37-.54-.37-.9s.12-.65.37-.9c.25-.24.54-.37.9-.37s.63.12.87.37c.24.25.36.54.36.9s-.12.65-.36.9-.53.37-.87.37-.65-.12-.9-.37ZM203.45,16.1v11.18h-1.86v-11.18h1.86Z"/>
      <path d="M208.26,27.02c-.68-.29-1.22-.7-1.61-1.22-.39-.52-.61-1.12-.65-1.8h1.92c.05.56.32,1.01.79,1.37.47.35,1.08.53,1.85.53.71,0,1.26-.16,1.67-.47.41-.31.61-.71.61-1.18s-.22-.85-.65-1.09c-.44-.24-1.11-.47-2.02-.7-.83-.22-1.51-.44-2.03-.66-.52-.22-.97-.56-1.35-1-.37-.44-.56-1.02-.56-1.74,0-.57.17-1.09.51-1.57.34-.48.82-.85,1.45-1.13s1.34-.42,2.14-.42c1.24,0,2.24.31,3,.94.76.63,1.17,1.48,1.22,2.57h-1.86c-.04-.58-.28-1.05-.7-1.41s-1-.53-1.72-.53c-.67,0-1.2.14-1.59.43-.39.29-.59.66-.59,1.12,0,.37.12.67.36.91.24.24.54.43.9.57s.86.3,1.5.48c.8.22,1.45.43,1.96.64.5.21.93.53,1.29.95.36.42.55.97.56,1.65,0,.61-.17,1.16-.51,1.65s-.82.87-1.44,1.15c-.62.28-1.33.42-2.13.42-.86,0-1.62-.15-2.3-.44Z"/>
      <path d="M217.26,18.63c.46-.86,1.1-1.53,1.91-2.01.81-.48,1.71-.71,2.7-.71s1.83.21,2.55.63c.72.42,1.26.95,1.61,1.59v-2.04h1.88v11.18h-1.88v-2.08c-.37.65-.91,1.19-1.64,1.62-.73.43-1.57.64-2.54.64s-1.89-.25-2.69-.73c-.8-.49-1.44-1.18-1.9-2.06-.46-.88-.69-1.89-.69-3.02s.23-2.14.69-3.01ZM225.52,19.46c-.34-.62-.8-1.1-1.38-1.44-.58-.33-1.21-.5-1.91-.5s-1.33.16-1.9.49c-.57.33-1.03.8-1.37,1.43-.34.62-.51,1.36-.51,2.2s.17,1.6.51,2.23c.34.63.8,1.12,1.37,1.45.57.33,1.2.5,1.9.5s1.33-.17,1.91-.5c.58-.33,1.04-.82,1.38-1.45.34-.63.51-1.37.51-2.21s-.17-1.58-.51-2.2Z"/>
      <path d="M247.67,27.27h-1.86l-7.46-11.32v11.32h-1.86v-14.24h1.86l7.46,11.3v-11.3h1.86v14.24Z"/>
      <path d="M250.83,18.63c.46-.86,1.1-1.53,1.91-2.01.81-.48,1.71-.71,2.7-.71s1.83.21,2.55.63c.72.42,1.26.95,1.61,1.59v-2.04h1.88v11.18h-1.88v-2.08c-.37.65-.91,1.19-1.64,1.62-.73.43-1.57.64-2.54.64s-1.89-.25-2.69-.73c-.8-.49-1.44-1.18-1.9-2.06-.46-.88-.69-1.89-.69-3.02s.23-2.14.69-3.01ZM259.09,19.46c-.34-.62-.8-1.1-1.38-1.44-.58-.33-1.21-.5-1.91-.5s-1.33.16-1.9.49c-.57.33-1.03.8-1.37,1.43-.34.62-.51,1.36-.51,2.2s.17,1.6.51,2.23c.34.63.8,1.12,1.37,1.45.57.33,1.2.5,1.9.5s1.33-.17,1.91-.5c.58-.33,1.04-.82,1.38-1.45.34-.63.51-1.37.51-2.21s-.17-1.58-.51-2.2Z"/>
      <path d="M264.62,18.63c.46-.86,1.1-1.53,1.93-2.01.82-.48,1.76-.71,2.82-.71,1.37,0,2.5.33,3.4,1s1.48,1.59,1.76,2.77h-2c-.19-.68-.56-1.22-1.11-1.61-.55-.39-1.23-.59-2.05-.59-1.06,0-1.92.36-2.57,1.09-.65.73-.98,1.76-.98,3.09s.33,2.39.98,3.12c.65.73,1.51,1.1,2.57,1.1.82,0,1.5-.19,2.04-.57.54-.38.92-.92,1.12-1.63h2c-.3,1.14-.9,2.06-1.79,2.74-.9.69-2.02,1.03-3.37,1.03-1.06,0-2-.24-2.82-.71-.82-.48-1.47-1.15-1.93-2.02-.46-.87-.69-1.89-.69-3.06s.23-2.17.69-3.03Z"/>
      <path d="M277.06,13.91c-.24-.25-.37-.54-.37-.9s.12-.65.37-.9c.25-.24.54-.37.9-.37s.63.12.87.37c.24.25.36.54.36.9s-.12.65-.36.9-.53.37-.87.37-.65-.12-.9-.37ZM278.85,16.1v11.18h-1.86v-11.18h1.86Z"/>
      <path d="M284.04,26.74c-.85-.48-1.52-1.15-2-2.03-.48-.88-.72-1.89-.72-3.05s.25-2.15.74-3.03c.5-.88,1.17-1.55,2.03-2.02.86-.47,1.82-.7,2.88-.7s2.02.23,2.88.7,1.53,1.14,2.03,2.01c.5.87.74,1.88.74,3.04s-.25,2.17-.76,3.05-1.2,1.55-2.07,2.03c-.87.48-1.84.71-2.9.71s-2-.24-2.85-.71ZM288.76,25.35c.58-.31,1.06-.78,1.42-1.41s.54-1.39.54-2.28-.18-1.66-.53-2.28-.82-1.09-1.39-1.4c-.57-.31-1.19-.46-1.86-.46s-1.3.15-1.87.46c-.56.31-1.02.77-1.36,1.4-.34.62-.51,1.39-.51,2.28s.17,1.68.5,2.3c.33.62.78,1.09,1.34,1.4.56.31,1.17.46,1.84.46s1.29-.16,1.88-.47Z"/>
      <path d="M303.81,17.12c.84.82,1.26,2.01,1.26,3.56v6.59h-1.84v-6.32c0-1.11-.28-1.97-.84-2.56-.56-.59-1.32-.89-2.28-.89s-1.76.31-2.34.92c-.58.61-.87,1.5-.87,2.67v6.18h-1.86v-11.18h1.86v1.59c.37-.57.87-1.01,1.5-1.33.63-.31,1.33-.47,2.09-.47,1.36,0,2.46.41,3.3,1.23Z"/>
      <path d="M308.12,18.63c.46-.86,1.1-1.53,1.91-2.01.81-.48,1.71-.71,2.7-.71s1.83.21,2.55.63c.72.42,1.26.95,1.61,1.59v-2.04h1.88v11.18h-1.88v-2.08c-.37.65-.91,1.19-1.64,1.62-.73.43-1.57.64-2.54.64s-1.89-.25-2.69-.73c-.8-.49-1.44-1.18-1.9-2.06-.46-.88-.69-1.89-.69-3.02s.23-2.14.69-3.01ZM316.38,19.46c-.34-.62-.8-1.1-1.38-1.44-.58-.33-1.21-.5-1.91-.5s-1.33.16-1.9.49c-.57.33-1.03.8-1.37,1.43-.34.62-.51,1.36-.51,2.2s.17,1.6.51,2.23c.34.63.8,1.12,1.37,1.45.57.33,1.2.5,1.9.5s1.33-.17,1.91-.5c.58-.33,1.04-.82,1.38-1.45.34-.63.51-1.37.51-2.21s-.17-1.58-.51-2.2Z"/>
      <path d="M323.76,12.18v15.09h-1.86v-15.09h1.86Z"/>
      <path d="M332.37,18.63c.46-.86,1.1-1.53,1.91-2.01.81-.48,1.72-.71,2.72-.71.87,0,1.68.2,2.43.6.75.4,1.32.93,1.71,1.58v-5.91h1.88v15.09h-1.88v-2.1c-.37.67-.91,1.21-1.63,1.64-.72.43-1.56.64-2.53.64s-1.89-.25-2.7-.73-1.44-1.18-1.91-2.06c-.46-.88-.69-1.89-.69-3.02s.23-2.14.69-3.01ZM340.63,19.46c-.34-.62-.8-1.1-1.38-1.44-.58-.33-1.21-.5-1.91-.5s-1.33.16-1.9.49c-.57.33-1.03.8-1.37,1.43-.34.62-.51,1.36-.51,2.2s.17,1.6.51,2.23c.34.63.8,1.12,1.37,1.45.57.33,1.2.5,1.9.5s1.33-.17,1.91-.5c.58-.33,1.04-.82,1.38-1.45.34-.63.51-1.37.51-2.21s-.17-1.58-.51-2.2Z"/>
      <path d="M356.29,22.38h-8.93c.07,1.1.45,1.96,1.13,2.58.69.62,1.52.93,2.5.93.8,0,1.47-.19,2.01-.56s.91-.87,1.13-1.5h2c-.3,1.07-.9,1.95-1.79,2.62s-2.01,1.01-3.34,1.01c-1.06,0-2.01-.24-2.84-.71-.84-.48-1.49-1.15-1.97-2.03-.48-.88-.71-1.89-.71-3.05s.23-2.17.69-3.04c.46-.87,1.11-1.54,1.95-2.01.84-.47,1.8-.7,2.89-.7s2,.23,2.81.69,1.44,1.1,1.89,1.91c.44.81.66,1.72.66,2.74,0,.35-.02.73-.06,1.12ZM353.96,19.04c-.31-.51-.74-.9-1.27-1.16-.54-.27-1.13-.4-1.78-.4-.94,0-1.74.3-2.4.9-.66.6-1.04,1.43-1.13,2.49h7.06c0-.71-.16-1.32-.47-1.83Z"/>
      <path d="M149.69,44.31c-.38.69-.97,1.24-1.75,1.66s-1.77.63-2.94.63h-2.16v5.14h-3.49v-14.32h5.65c1.14,0,2.11.2,2.9.59s1.38.94,1.77,1.63c.39.69.59,1.49.59,2.39,0,.83-.19,1.59-.57,2.27ZM146.22,43.36c.33-.31.49-.75.49-1.33s-.16-1.01-.49-1.33c-.33-.31-.82-.47-1.49-.47h-1.9v3.59h1.9c.67,0,1.16-.16,1.49-.47Z"/>
      <path d="M162.74,46.89h-7.89c.05.71.28,1.25.68,1.62s.89.56,1.48.56c.87,0,1.48-.37,1.82-1.1h3.71c-.19.75-.53,1.42-1.03,2.02-.5.6-1.12,1.07-1.87,1.41-.75.34-1.58.51-2.51.51-1.11,0-2.11-.24-2.98-.71-.87-.48-1.55-1.16-2.04-2.04-.49-.88-.73-1.92-.73-3.1s.24-2.22.72-3.1,1.16-1.56,2.03-2.04c.87-.48,1.87-.71,3-.71s2.08.23,2.94.69c.86.46,1.53,1.12,2.01,1.98.48.86.72,1.86.72,3,0,.33-.02.67-.06,1.02ZM159.24,44.95c0-.6-.2-1.07-.61-1.43s-.92-.53-1.53-.53-1.08.17-1.48.51-.65.82-.74,1.45h4.36Z"/>
      <path d="M169.66,40.78c.61-.36,1.29-.54,2.04-.54v3.69h-.96c-.87,0-1.52.19-1.96.56-.44.37-.65,1.03-.65,1.97v5.28h-3.49v-11.38h3.49v1.9c.41-.62.92-1.12,1.53-1.48Z"/>
      <path d="M173.4,42.95c.48-.88,1.16-1.56,2.02-2.04.86-.48,1.85-.71,2.97-.71,1.43,0,2.62.37,3.58,1.12.96.75,1.59,1.8,1.89,3.16h-3.71c-.31-.87-.92-1.3-1.82-1.3-.64,0-1.15.25-1.53.74-.38.5-.57,1.21-.57,2.13s.19,1.64.57,2.13c.38.5.89.74,1.53.74.9,0,1.5-.43,1.82-1.31h3.71c-.3,1.33-.93,2.38-1.9,3.14-.97.76-2.16,1.14-3.57,1.14-1.12,0-2.1-.24-2.97-.71-.86-.48-1.54-1.16-2.02-2.04s-.72-1.92-.72-3.1.24-2.22.72-3.1Z"/>
      <path d="M196.38,46.89h-7.89c.05.71.28,1.25.68,1.62s.89.56,1.48.56c.87,0,1.48-.37,1.82-1.1h3.71c-.19.75-.53,1.42-1.03,2.02-.5.6-1.12,1.07-1.87,1.41-.75.34-1.58.51-2.51.51-1.11,0-2.11-.24-2.98-.71-.87-.48-1.55-1.16-2.04-2.04-.49-.88-.73-1.92-.73-3.1s.24-2.22.72-3.1,1.16-1.56,2.03-2.04c.87-.48,1.87-.71,3-.71s2.08.23,2.94.69c.86.46,1.53,1.12,2.01,1.98.48.86.72,1.86.72,3,0,.33-.02.67-.06,1.02ZM192.87,44.95c0-.6-.2-1.07-.61-1.43s-.92-.53-1.53-.53-1.08.17-1.48.51-.65.82-.74,1.45h4.36Z"/>
      <path d="M203.17,40.69c.6-.33,1.3-.49,2.1-.49.94,0,1.79.24,2.55.71.76.48,1.36,1.16,1.8,2.04s.66,1.91.66,3.08-.22,2.2-.66,3.09c-.44.89-1.04,1.58-1.8,2.06-.76.48-1.61.72-2.55.72-.79,0-1.49-.16-2.09-.49-.61-.33-1.08-.75-1.42-1.26v7.02h-3.49v-16.8h3.49v1.61c.34-.53.81-.96,1.41-1.29ZM206.01,43.98c-.48-.5-1.08-.75-1.78-.75s-1.28.25-1.76.75c-.48.5-.72,1.19-.72,2.06s.24,1.56.72,2.06c.48.5,1.07.75,1.76.75s1.28-.25,1.77-.76c.49-.51.73-1.2.73-2.07s-.24-1.55-.72-2.05Z"/>
      <path d="M218.89,47.62h3.71c-.26,1.16-.77,2.1-1.55,2.83s-1.74,1.19-2.9,1.37v.75c.71,0,1.33.19,1.86.58.53.39.8.97.8,1.74s-.28,1.36-.84,1.76c-.56.4-1.22.6-2,.6h-3.14v-1.92h2.67c.27,0,.48-.04.61-.12.14-.08.2-.22.2-.41s-.07-.32-.2-.4c-.14-.07-.34-.11-.61-.11h-1.45v-2.49c-1.4-.22-2.52-.84-3.37-1.87-.84-1.03-1.26-2.33-1.26-3.91,0-1.18.24-2.22.72-3.1s1.16-1.56,2.02-2.04c.86-.48,1.85-.71,2.97-.71,1.43,0,2.62.37,3.58,1.12.96.75,1.59,1.8,1.89,3.16h-3.71c-.31-.87-.92-1.3-1.82-1.3-.64,0-1.15.25-1.53.74-.38.5-.57,1.21-.57,2.13s.19,1.64.57,2.13c.38.5.89.74,1.53.74.9,0,1.5-.43,1.82-1.31Z"/>
      <path d="M224.43,42.95c.44-.88,1.04-1.56,1.8-2.04.76-.48,1.61-.71,2.55-.71.8,0,1.51.16,2.11.49s1.07.75,1.4,1.29v-1.61h3.49v11.38h-3.49v-1.61c-.34.53-.81.96-1.42,1.29-.61.33-1.31.49-2.11.49-.92,0-1.77-.24-2.53-.72-.76-.48-1.36-1.17-1.8-2.06-.44-.89-.66-1.92-.66-3.09s.22-2.2.66-3.08ZM228.93,36.39c.3,0,.56.04.79.13.22.09.5.22.83.4.25.14.44.24.59.3.15.06.31.09.47.09.5,0,.8-.31.88-.92h1.79c-.33,2.01-1.26,3.02-2.81,3.02-.3,0-.56-.04-.79-.13-.22-.09-.5-.22-.83-.4-.24-.14-.44-.23-.59-.3-.15-.06-.31-.09-.47-.09-.5,0-.8.31-.9.92h-1.77c.33-2.01,1.26-3.02,2.81-3.02ZM231.57,43.99c-.48-.5-1.07-.75-1.76-.75s-1.28.25-1.76.75c-.48.5-.72,1.18-.72,2.05s.24,1.56.72,2.07c.48.51,1.07.76,1.76.76s1.28-.25,1.76-.75c.48-.5.72-1.19.72-2.06s-.24-1.56-.72-2.06Z"/>
      <path d="M240.48,51.19c-.89-.48-1.59-1.16-2.1-2.04s-.76-1.92-.76-3.1.26-2.2.77-3.09c.52-.89,1.22-1.57,2.12-2.05.9-.48,1.9-.71,3.02-.71s2.12.24,3.02.71c.9.48,1.6,1.16,2.12,2.05.52.89.77,1.92.77,3.09s-.26,2.2-.79,3.09c-.52.89-1.24,1.57-2.14,2.05-.9.48-1.91.71-3.03.71s-2.12-.24-3.01-.71ZM245.19,48.15c.47-.49.7-1.19.7-2.1s-.23-1.61-.68-2.1c-.46-.49-1.02-.73-1.68-.73s-1.24.24-1.69.72c-.45.48-.67,1.19-.67,2.11s.22,1.61.66,2.1c.44.49,1,.73,1.66.73s1.23-.24,1.7-.73Z"/>
      <path d="M257.6,51.4c-.77-.34-1.39-.81-1.84-1.4-.45-.59-.7-1.25-.75-1.99h3.45c.04.39.22.71.55.96.33.24.73.37,1.2.37.44,0,.77-.08,1.01-.25.24-.17.36-.39.36-.66,0-.33-.17-.57-.51-.72-.34-.16-.89-.33-1.65-.52-.82-.19-1.5-.39-2.04-.6-.54-.21-1.01-.54-1.41-1-.39-.46-.59-1.07-.59-1.85,0-.65.18-1.25.54-1.79s.89-.96,1.59-1.27,1.53-.47,2.5-.47c1.43,0,2.55.35,3.38,1.06s1.3,1.64,1.42,2.81h-3.22c-.05-.39-.23-.71-.52-.94-.29-.23-.68-.35-1.15-.35-.41,0-.72.08-.94.23-.22.16-.33.37-.33.64,0,.33.17.57.52.73s.89.33,1.62.49c.84.22,1.53.43,2.06.64s1,.55,1.4,1.02c.4.47.61,1.1.62,1.89,0,.67-.19,1.26-.56,1.78-.37.52-.91.94-1.61,1.23s-1.51.45-2.44.45c-.99,0-1.88-.17-2.65-.51Z"/>
      <path d="M269.17,51.19c-.89-.48-1.59-1.16-2.1-2.04s-.76-1.92-.76-3.1.26-2.2.77-3.09c.52-.89,1.22-1.57,2.12-2.05.9-.48,1.9-.71,3.02-.71s2.12.24,3.02.71c.9.48,1.6,1.16,2.12,2.05.52.89.77,1.92.77,3.09s-.26,2.2-.79,3.09c-.52.89-1.24,1.57-2.14,2.05-.9.48-1.91.71-3.03.71s-2.12-.24-3.01-.71ZM273.88,48.15c.47-.49.7-1.19.7-2.1s-.23-1.61-.68-2.1c-.46-.49-1.02-.73-1.68-.73s-1.24.24-1.69.72c-.45.48-.67,1.19-.67,2.11s.22,1.61.66,2.1c.44.49,1,.73,1.66.73s1.23-.24,1.7-.73Z"/>
      <path d="M284.89,40.69c.61-.33,1.31-.49,2.1-.49.94,0,1.79.24,2.55.71.76.48,1.36,1.16,1.8,2.04s.66,1.91.66,3.08-.22,2.2-.66,3.09c-.44.89-1.04,1.58-1.8,2.06-.76.48-1.61.72-2.55.72-.8,0-1.5-.16-2.1-.48-.6-.32-1.07-.74-1.41-1.27v1.59h-3.49v-15.09h3.49v5.32c.33-.53.8-.96,1.41-1.29ZM287.73,43.98c-.48-.5-1.08-.75-1.78-.75s-1.28.25-1.76.75c-.48.5-.72,1.19-.72,2.06s.24,1.56.72,2.06c.48.5,1.07.75,1.76.75s1.28-.25,1.77-.76c.49-.51.73-1.2.73-2.07s-.24-1.55-.72-2.05Z"/>
      <path d="M298.86,40.78c.61-.36,1.29-.54,2.04-.54v3.69h-.96c-.87,0-1.52.19-1.96.56-.44.37-.65,1.03-.65,1.97v5.28h-3.49v-11.38h3.49v1.9c.41-.62.92-1.12,1.53-1.48Z"/>
      <path d="M313.24,46.89h-7.89c.05.71.28,1.25.68,1.62s.89.56,1.48.56c.87,0,1.48-.37,1.82-1.1h3.71c-.19.75-.53,1.42-1.03,2.02-.5.6-1.12,1.07-1.87,1.41-.75.34-1.58.51-2.51.51-1.11,0-2.11-.24-2.98-.71-.87-.48-1.55-1.16-2.04-2.04-.49-.88-.73-1.92-.73-3.1s.24-2.22.72-3.1,1.16-1.56,2.03-2.04c.87-.48,1.87-.71,3-.71s2.08.23,2.94.69c.86.46,1.53,1.12,2.01,1.98.48.86.72,1.86.72,3,0,.33-.02.67-.06,1.02ZM309.73,44.95c0-.6-.2-1.07-.61-1.43s-.92-.53-1.53-.53-1.08.17-1.48.51-.65.82-.74,1.45h4.36Z"/>
      <path d="M321.63,51.19c-.89-.48-1.59-1.16-2.1-2.04s-.76-1.92-.76-3.1.26-2.2.77-3.09c.52-.89,1.22-1.57,2.12-2.05.9-.48,1.9-.71,3.02-.71s2.12.24,3.02.71c.9.48,1.6,1.16,2.12,2.05.52.89.77,1.92.77,3.09s-.26,2.2-.79,3.09c-.52.89-1.24,1.57-2.14,2.05-.9.48-1.91.71-3.03.71s-2.12-.24-3.01-.71ZM326.34,48.15c.47-.49.7-1.19.7-2.1s-.23-1.61-.68-2.1c-.46-.49-1.02-.73-1.68-.73s-1.24.24-1.69.72c-.45.48-.67,1.19-.67,2.11s.22,1.61.66,2.1c.44.49,1,.73,1.66.73s1.23-.24,1.7-.73Z"/>
      <path d="M337.1,40.78c.61-1.11,1.46-1.97,2.56-2.59,1.09-.62,2.33-.93,3.72-.93,1.7,0,3.15.45,4.36,1.35,1.21.9,2.02,2.12,2.43,3.67h-3.83c-.29-.6-.69-1.05-1.21-1.37-.52-.31-1.12-.47-1.78-.47-1.07,0-1.94.37-2.61,1.12-.67.75-1,1.75-1,3s.33,2.25,1,3c.67.75,1.54,1.12,2.61,1.12.67,0,1.26-.16,1.78-.47.52-.31.93-.77,1.21-1.37h3.83c-.41,1.55-1.22,2.77-2.43,3.66-1.21.89-2.67,1.33-4.36,1.33-1.39,0-2.63-.31-3.72-.93-1.09-.62-1.95-1.48-2.56-2.58-.61-1.1-.92-2.36-.92-3.77s.31-2.67.92-3.78Z"/>
      <path d="M355.8,36.65v15.09h-3.49v-15.09h3.49Z"/>
      <path d="M358.58,38.64c-.39-.36-.58-.81-.58-1.34s.19-1,.58-1.36c.39-.36.89-.54,1.5-.54s1.09.18,1.48.54c.39.36.58.81.58,1.36s-.19.98-.58,1.34c-.39.36-.88.54-1.48.54s-1.11-.18-1.5-.54ZM361.82,40.36v11.38h-3.49v-11.38h3.49Z"/>
      <path d="M382.24,41.53c.84.86,1.25,2.05,1.25,3.57v6.65h-3.47v-6.18c0-.73-.19-1.3-.58-1.7-.39-.4-.92-.6-1.6-.6s-1.21.2-1.6.6c-.39.4-.58.97-.58,1.7v6.18h-3.47v-6.18c0-.73-.19-1.3-.58-1.7-.39-.4-.92-.6-1.6-.6s-1.21.2-1.6.6c-.39.4-.58.97-.58,1.7v6.18h-3.49v-11.38h3.49v1.43c.35-.48.82-.85,1.39-1.13.57-.28,1.22-.42,1.94-.42.86,0,1.62.18,2.29.55s1.2.89,1.58,1.57c.39-.62.93-1.13,1.61-1.53.68-.39,1.42-.59,2.22-.59,1.41,0,2.54.43,3.38,1.29Z"/>
      <path d="M385.91,42.95c.44-.88,1.04-1.56,1.8-2.04.76-.48,1.61-.71,2.55-.71.8,0,1.51.16,2.11.49s1.07.75,1.4,1.29v-1.61h3.49v11.38h-3.49v-1.61c-.34.53-.81.96-1.42,1.29-.61.33-1.31.49-2.11.49-.92,0-1.77-.24-2.53-.72-.76-.48-1.36-1.17-1.8-2.06-.44-.89-.66-1.92-.66-3.09s.22-2.2.66-3.08ZM393.05,43.99c-.48-.5-1.07-.75-1.76-.75s-1.28.25-1.76.75c-.48.5-.72,1.18-.72,2.05s.24,1.56.72,2.07c.48.51,1.07.76,1.76.76s1.28-.25,1.76-.75.72-1.19.72-2.06-.24-1.56-.72-2.06Z"/>
      <path d="M149.48,66.01c.8.86,1.19,2.05,1.19,3.56v6.65h-3.47v-6.18c0-.76-.2-1.35-.59-1.77-.39-.42-.92-.63-1.59-.63s-1.2.21-1.59.63c-.39.42-.59,1.01-.59,1.77v6.18h-3.49v-11.38h3.49v1.51c.35-.5.83-.9,1.43-1.19.6-.29,1.27-.44,2.02-.44,1.33,0,2.4.43,3.19,1.3Z"/>
      <path d="M153.07,67.43c.44-.88,1.04-1.56,1.8-2.04.76-.48,1.61-.71,2.55-.71.8,0,1.51.16,2.11.49s1.07.75,1.4,1.29v-1.61h3.49v11.38h-3.49v-1.61c-.34.53-.81.96-1.42,1.29-.61.33-1.31.49-2.11.49-.92,0-1.77-.24-2.53-.72-.76-.48-1.36-1.17-1.8-2.06-.44-.89-.66-1.92-.66-3.09s.22-2.2.66-3.08ZM160.21,68.47c-.48-.5-1.07-.75-1.76-.75s-1.28.25-1.76.75c-.48.5-.72,1.18-.72,2.05s.24,1.56.72,2.07c.48.51,1.07.76,1.76.76s1.28-.25,1.76-.75c.48-.5.72-1.19.72-2.06s-.24-1.56-.72-2.06Z"/>
      <path d="M168.92,75.87c-.77-.34-1.39-.81-1.84-1.4-.45-.59-.7-1.25-.75-1.99h3.45c.04.39.22.71.55.96.33.24.73.37,1.2.37.44,0,.77-.08,1.01-.25.24-.17.36-.39.36-.66,0-.33-.17-.57-.51-.72-.34-.16-.89-.33-1.65-.52-.82-.19-1.5-.39-2.04-.6-.54-.21-1.01-.54-1.41-1-.39-.46-.59-1.07-.59-1.85,0-.65.18-1.25.54-1.79s.89-.96,1.59-1.27,1.53-.47,2.5-.47c1.43,0,2.55.35,3.38,1.06s1.3,1.64,1.42,2.81h-3.22c-.05-.39-.23-.71-.52-.94-.29-.23-.68-.35-1.15-.35-.41,0-.72.08-.94.23-.22.16-.33.37-.33.64,0,.33.17.57.52.73s.89.33,1.62.49c.84.22,1.53.43,2.06.64s1,.55,1.4,1.02c.4.47.61,1.1.62,1.89,0,.67-.19,1.26-.56,1.78-.37.52-.91.94-1.61,1.23s-1.51.45-2.44.45c-.99,0-1.88-.17-2.65-.51Z"/>
      <path d="M186.08,61.9v8.57c0,.86.21,1.52.63,1.98.42.46,1.04.69,1.86.69s1.44-.23,1.88-.69c.44-.46.65-1.12.65-1.98v-8.57h3.49v8.55c0,1.28-.27,2.36-.82,3.24-.54.88-1.27,1.55-2.19,2-.92.45-1.94.67-3.07.67s-2.14-.22-3.03-.66c-.89-.44-1.59-1.11-2.11-2s-.77-1.97-.77-3.25v-8.55h3.49Z"/>
      <path d="M207.15,66.01c.8.86,1.19,2.05,1.19,3.56v6.65h-3.47v-6.18c0-.76-.2-1.35-.59-1.77-.39-.42-.92-.63-1.59-.63s-1.2.21-1.59.63c-.39.42-.59,1.01-.59,1.77v6.18h-3.49v-11.38h3.49v1.51c.35-.5.83-.9,1.43-1.19.6-.29,1.27-.44,2.02-.44,1.33,0,2.4.43,3.19,1.3Z"/>
      <path d="M211.03,63.11c-.39-.36-.58-.81-.58-1.34s.19-1,.58-1.36c.39-.36.89-.54,1.5-.54s1.09.18,1.48.54c.39.36.58.81.58,1.36s-.19.98-.58,1.34c-.39.36-.88.54-1.48.54s-1.11-.18-1.5-.54ZM214.26,64.84v11.38h-3.49v-11.38h3.49Z"/>
      <path d="M216.76,67.43c.44-.88,1.04-1.56,1.8-2.04.76-.48,1.61-.71,2.55-.71.75,0,1.43.16,2.05.47s1.1.73,1.46,1.26v-5.28h3.49v15.09h-3.49v-1.63c-.33.54-.79.98-1.4,1.31s-1.31.49-2.11.49c-.94,0-1.79-.24-2.55-.72-.76-.48-1.36-1.17-1.8-2.06-.44-.89-.66-1.92-.66-3.09s.22-2.2.66-3.08ZM223.9,68.47c-.48-.5-1.07-.75-1.76-.75s-1.28.25-1.76.75c-.48.5-.72,1.18-.72,2.05s.24,1.56.72,2.07c.48.51,1.07.76,1.76.76s1.28-.25,1.76-.75c.48-.5.72-1.19.72-2.06s-.24-1.56-.72-2.06Z"/>
      <path d="M230.61,67.43c.44-.88,1.04-1.56,1.8-2.04.76-.48,1.61-.71,2.55-.71.8,0,1.51.16,2.11.49s1.07.75,1.4,1.29v-1.61h3.49v11.38h-3.49v-1.61c-.34.53-.81.96-1.42,1.29-.61.33-1.31.49-2.11.49-.92,0-1.77-.24-2.53-.72-.76-.48-1.36-1.17-1.8-2.06-.44-.89-.66-1.92-.66-3.09s.22-2.2.66-3.08ZM237.75,68.47c-.48-.5-1.07-.75-1.76-.75s-1.28.25-1.76.75c-.48.5-.72,1.18-.72,2.05s.24,1.56.72,2.07c.48.51,1.07.76,1.76.76s1.28-.25,1.76-.75c.48-.5.72-1.19.72-2.06s-.24-1.56-.72-2.06Z"/>
      <path d="M244.46,67.43c.44-.88,1.04-1.56,1.8-2.04.76-.48,1.61-.71,2.55-.71.75,0,1.43.16,2.05.47s1.1.73,1.46,1.26v-5.28h3.49v15.09h-3.49v-1.63c-.33.54-.79.98-1.4,1.31s-1.31.49-2.11.49c-.94,0-1.79-.24-2.55-.72-.76-.48-1.36-1.17-1.8-2.06-.44-.89-.66-1.92-.66-3.09s.22-2.2.66-3.08ZM251.59,68.47c-.48-.5-1.07-.75-1.76-.75s-1.28.25-1.76.75c-.48.5-.72,1.18-.72,2.05s.24,1.56.72,2.07c.48.51,1.07.76,1.76.76s1.28-.25,1.76-.75c.48-.5.72-1.19.72-2.06s-.24-1.56-.72-2.06Z"/>
      <path d="M269,71.36h-7.89c.05.71.28,1.25.68,1.62s.89.56,1.48.56c.87,0,1.48-.37,1.82-1.1h3.71c-.19.75-.53,1.42-1.03,2.02-.5.6-1.12,1.07-1.87,1.41-.75.34-1.58.51-2.51.51-1.11,0-2.11-.24-2.98-.71-.87-.48-1.55-1.16-2.04-2.04-.49-.88-.73-1.92-.73-3.1s.24-2.22.72-3.1,1.16-1.56,2.03-2.04c.87-.48,1.87-.71,3-.71s2.08.23,2.94.69c.86.46,1.53,1.12,2.01,1.98.48.86.72,1.86.72,3,0,.33-.02.67-.06,1.02ZM265.49,69.43c0-.6-.2-1.07-.61-1.43s-.92-.53-1.53-.53-1.08.17-1.48.51-.65.82-.74,1.45h4.36Z"/>
      <path d="M272.87,75.87c-.77-.34-1.39-.81-1.84-1.4-.45-.59-.7-1.25-.75-1.99h3.45c.04.39.22.71.55.96.33.24.73.37,1.2.37.44,0,.77-.08,1.01-.25.24-.17.36-.39.36-.66,0-.33-.17-.57-.51-.72-.34-.16-.89-.33-1.65-.52-.82-.19-1.5-.39-2.04-.6-.54-.21-1.01-.54-1.41-1-.39-.46-.59-1.07-.59-1.85,0-.65.18-1.25.54-1.79s.89-.96,1.59-1.27,1.53-.47,2.5-.47c1.43,0,2.55.35,3.38,1.06s1.3,1.64,1.42,2.81h-3.22c-.05-.39-.23-.71-.52-.94-.29-.23-.68-.35-1.15-.35-.41,0-.72.08-.94.23-.22.16-.33.37-.33.64,0,.33.17.57.52.73s.89.33,1.62.49c.84.22,1.53.43,2.06.64s1,.55,1.4,1.02c.4.47.61,1.1.62,1.89,0,.67-.19,1.26-.56,1.78-.37.52-.91.94-1.61,1.23s-1.51.45-2.44.45c-.99,0-1.88-.17-2.65-.51Z"/>
      <path d="M286.57,67.43c.44-.88,1.04-1.56,1.8-2.04.76-.48,1.61-.71,2.55-.71.75,0,1.43.16,2.05.47s1.1.73,1.46,1.26v-5.28h3.49v15.09h-3.49v-1.63c-.33.54-.79.98-1.4,1.31s-1.31.49-2.11.49c-.94,0-1.79-.24-2.55-.72-.76-.48-1.36-1.17-1.8-2.06-.44-.89-.66-1.92-.66-3.09s.22-2.2.66-3.08ZM293.71,68.47c-.48-.5-1.07-.75-1.76-.75s-1.28.25-1.76.75c-.48.5-.72,1.18-.72,2.05s.24,1.56.72,2.07c.48.51,1.07.76,1.76.76s1.28-.25,1.76-.75c.48-.5.72-1.19.72-2.06s-.24-1.56-.72-2.06Z"/>
      <path d="M302.62,75.67c-.89-.48-1.59-1.16-2.1-2.04s-.76-1.92-.76-3.1.26-2.2.77-3.09c.52-.89,1.22-1.57,2.12-2.05.9-.48,1.9-.71,3.02-.71s2.12.24,3.02.71c.9.48,1.6,1.16,2.12,2.05.52.89.77,1.92.77,3.09s-.26,2.2-.79,3.09c-.52.89-1.24,1.57-2.14,2.05-.9.48-1.91.71-3.03.71s-2.12-.24-3.01-.71ZM307.33,72.63c.47-.49.7-1.19.7-2.1s-.23-1.61-.68-2.1c-.46-.49-1.02-.73-1.68-.73s-1.24.24-1.69.72c-.45.48-.67,1.19-.67,2.11s.22,1.61.66,2.1c.44.49,1,.73,1.66.73s1.23-.24,1.7-.73Z"/>
      <path d="M320.13,75.85c-.83-.34-1.49-.84-1.99-1.51s-.76-1.47-.79-2.41h3.71c.05.53.24.94.55,1.21.31.28.72.42,1.22.42s.92-.12,1.22-.36c.3-.24.45-.57.45-.99,0-.35-.12-.65-.36-.88-.24-.23-.53-.42-.88-.57s-.84-.32-1.48-.51c-.92-.29-1.68-.57-2.26-.86-.58-.29-1.09-.71-1.51-1.26-.42-.56-.63-1.29-.63-2.18,0-1.33.48-2.38,1.45-3.13.97-.75,2.22-1.13,3.77-1.13s2.85.38,3.81,1.13c.97.75,1.48,1.8,1.55,3.15h-3.77c-.03-.46-.2-.83-.51-1.09-.31-.27-.71-.4-1.2-.4-.42,0-.76.11-1.02.34-.26.22-.39.55-.39.97,0,.46.22.82.65,1.08.44.26,1.11.54,2.04.84.92.31,1.68.61,2.25.9.58.29,1.08.7,1.5,1.24.42.54.63,1.24.63,2.1s-.21,1.56-.62,2.22-1.02,1.2-1.8,1.59c-.79.39-1.72.59-2.79.59s-1.99-.17-2.81-.51Z"/>
      <path d="M340.97,71.36h-7.89c.05.71.28,1.25.68,1.62s.89.56,1.48.56c.87,0,1.48-.37,1.82-1.1h3.71c-.19.75-.53,1.42-1.03,2.02-.5.6-1.12,1.07-1.87,1.41-.75.34-1.58.51-2.51.51-1.11,0-2.11-.24-2.98-.71-.87-.48-1.55-1.16-2.04-2.04-.49-.88-.73-1.92-.73-3.1s.24-2.22.72-3.1,1.16-1.56,2.03-2.04c.87-.48,1.87-.71,3-.71s2.08.23,2.94.69c.86.46,1.53,1.12,2.01,1.98.48.86.72,1.86.72,3,0,.33-.02.67-.06,1.02ZM337.46,69.43c0-.6-.2-1.07-.61-1.43s-.92-.53-1.53-.53-1.08.17-1.48.51-.65.82-.74,1.45h4.36Z"/>
      <path d="M352.99,66.01c.8.86,1.19,2.05,1.19,3.56v6.65h-3.47v-6.18c0-.76-.2-1.35-.59-1.77-.39-.42-.92-.63-1.59-.63s-1.2.21-1.59.63c-.39.42-.59,1.01-.59,1.77v6.18h-3.49v-11.38h3.49v1.51c.35-.5.83-.9,1.43-1.19.6-.29,1.27-.44,2.02-.44,1.33,0,2.4.43,3.19,1.3Z"/>
      <path d="M356.58,67.43c.44-.88,1.04-1.56,1.8-2.04.76-.48,1.61-.71,2.55-.71.8,0,1.51.16,2.11.49s1.07.75,1.4,1.29v-1.61h3.49v11.38h-3.49v-1.61c-.34.53-.81.96-1.42,1.29-.61.33-1.31.49-2.11.49-.92,0-1.77-.24-2.53-.72-.76-.48-1.36-1.17-1.8-2.06-.44-.89-.66-1.92-.66-3.09s.22-2.2.66-3.08ZM363.72,68.47c-.48-.5-1.07-.75-1.76-.75s-1.28.25-1.76.75c-.48.5-.72,1.18-.72,2.05s.24,1.56.72,2.07c.48.51,1.07.76,1.76.76s1.28-.25,1.76-.75c.48-.5.72-1.19.72-2.06s-.24-1.56-.72-2.06Z"/>
      <path d="M370.49,67.43c.48-.88,1.16-1.56,2.02-2.04.86-.48,1.85-.71,2.97-.71,1.43,0,2.62.37,3.58,1.12.96.75,1.59,1.8,1.89,3.16h-3.71c-.31-.87-.92-1.3-1.82-1.3-.64,0-1.15.25-1.53.74-.38.5-.57,1.21-.57,2.13s.19,1.64.57,2.13c.38.5.89.74,1.53.74.9,0,1.5-.43,1.82-1.31h3.71c-.3,1.33-.93,2.38-1.9,3.14-.97.76-2.16,1.14-3.57,1.14-1.12,0-2.1-.24-2.97-.71-.86-.48-1.54-1.16-2.02-2.04s-.72-1.92-.72-3.1.24-2.22.72-3.1Z"/>
    </g>
    <path class="cls-1" d="M552.96,168.87c5.83-3.14,9.19-9.41,9.72-18.14.67-11-1.23-24.52-4.91-37.6,5.2,1.01,10.24,1.29,14.69.54,5.37-.91,9.34-3.23,11.81-6.89,5.59-8.29,2.74-26.93-8.71-56.97-9.03-23.67-20.98-47.63-25.46-56.39,5.56.74,16.21,1.67,26.54-.08,14.44-2.45,23.34-9.49,25.75-20.38,3.09-13.99-4.53-26.79-22.06-37.04-12.87-7.53-26.37-11.02-26.94-11.16-1.05-.27-2.13.37-2.4,1.42-.27,1.06.37,2.13,1.42,2.4.52.13,51.75,13.56,46.29,42.72-.05.27-.11.54-.17.81-2.06,9.32-9.65,15.16-22.56,17.34-13.87,2.35-28.89-.49-29.04-.51-.74-.14-1.51.15-1.96.76-.45.61-.51,1.42-.16,2.09.16.3,15.88,30.1,27.06,59.42,13.47,35.31,12.4,48.51,9.13,53.36-1.84,2.73-4.94,4.49-9.21,5.21-4.32.73-9.64.35-15.3-.93-3.19-10.18-7.43-19.89-12.34-27.69-6-9.55-13.96-15.59-21.27-16.15-4.2-.32-7.89,1.21-10.68,4.42-1.93,2.22-2.73,4.9-2.4,7.97.83,7.67,8.88,16.2,16.15,21.61,7.16,5.35,17.36,10.42,27.45,13.1,3.95,13.27,6.03,27.18,5.35,38.37-.44,7.3-3.09,12.45-7.66,14.91-6.59,3.55-16.98,1.62-29.24-5.43-19.05-10.95-40.42-32.77-61.42-62.21l-1,5.34c20.64,28.38,41.62,49.46,60.45,60.29,13.49,7.76,25.24,9.71,33.08,5.49ZM528.3,95.86c-8.29-6.18-14.01-13.59-14.58-18.88-.21-1.97.27-3.59,1.46-4.97,1.97-2.27,4.46-3.3,7.4-3.07,5.98.46,12.97,5.95,18.23,14.32,4.36,6.94,8.18,15.43,11.17,24.4-8.17-2.45-16.68-6.58-23.68-11.81Z"/>
    <g>
      <path d="M668,61.28c-.13-.01-.25-.02-.36-.02-1.84,0-3.11.72-3.11,2.02s1.28,2.22,3.11,2.22c.11,0,.23,0,.36-.02v1.66h0c-.12,0-.23.01-.35.01-2.31,0-4.76-.8-5.41-2.78v2.78h-2.51l-4.32-4.8v4.8h-3.65c-2.68-.01-5.53-1.1-5.53-3.87,0-2.41,2.5-3.52,5.03-3.66v1.66c-1.54.13-2.56.83-2.56,1.99,0,1.29,1.26,2.2,3.07,2.22h1.16v-5.88c1.36,0,2.73.48,3.86,1.74,1.1,1.22,3,3.33,3,3.33v-5.07h2.45v2.66c.65-1.86,3.1-2.66,5.41-2.66.12,0,.24,0,.36.01v1.66Z"/>
      <path d="M686.96,63.38h-2.95c.15-.76.68-1.26,1.49-1.26s1.34.51,1.46,1.26M695.78,63.83c0-1,1.05-1.81,2.33-1.81.16,0,.31.01.46.04v-1.27c-.28-.04-.57-.06-.89-.06-2.22,0-3.9,1.33-3.9,3.11,0,.13.01.26.03.38-.32-.56-1.04-.85-2.09-1.07-1.31-.27-1.49-.38-1.47-.67.03-.28.47-.53,1.12-.53.42,0,.98.1,1.48.33v-1.32c-.48-.15-1.01-.25-1.58-.25-1.66,0-2.77.79-2.85,1.88,0,.02,0,.03,0,.05-.39-1.09-1.32-1.91-2.94-1.91-1.93,0-3.26,1.41-3.26,3.13,0,.09.02.17.02.26-.31-.79-1.2-1.19-2.58-1.49-1.48-.32-1.85-.48-1.85-.96v-.02c0-.35.38-.64,1.1-.64s1.3.26,2.04.7v-1.72c-.65-.25-1.22-.39-2.02-.39-1.75,0-3,.87-3,2.2v.02c0,1.45,1.11,1.85,2.84,2.23,1.43.31,1.72.52,1.72.93v.02c0,.43-.46.69-1.23.69-.98,0-1.84-.38-2.61-.92l-1.11,1.14c1.03.78,2.39,1.2,3.69,1.2,1.84,0,3.14-.81,3.14-2.25.39,1.27,1.52,2.11,3.09,2.11.3,0,.72,0,1.42-.18v-1.32c-.65.19-.93.21-1.31.19-.76-.04-1.39-.47-1.57-1.22h4.62c.01-.15.02-.25.02-.42v-.02c0-.18-.02-.35-.04-.52.34.51,1.11.71,2.19.93,1.29.26,1.36.46,1.36.76,0,.27-.34.57-1.1.55-.78-.03-1.7-.26-2.4-.66v1.52c.74.33,1.67.54,2.4.54,1.74,0,2.94-1.02,2.94-2.12,0-.04,0-.08-.01-.12.3.74.91,1.31,1.61,1.65.69.33,1.42.44,2.02.44.35,0,.66-.02.96-.07v-1.29c-.15.02-.3.04-.46.04-1.29,0-2.33-.81-2.33-1.81"/>
      <path d="M691.16,26.18c-2.66-1.83-5.87-3.28-9.4-4.14-.87-.21-1.75-.4-2.65-.53-.03,0-.07,0-.11-.01-1.29.95-2.47,2-3.54,3.13,1.18-.17,2.39-.28,3.62-.33,4.3-.16,8.39.55,12.08,1.89"/>
      <path d="M674.36,34.78c1.67-1.24,3.5-2.34,5.48-3.27,4.87-2.3,9.96-3.27,14.77-3.06-4.14-1.83-8.89-2.79-13.91-2.61-2.48.09-4.87.46-7.13,1.05-1.13,1.52-2.06,3.15-2.77,4.87,1.09,1.07,2.28,2.09,3.57,3.02"/>
      <path d="M669.22,39.57c1.32-1.55,2.84-2.99,4.51-4.3-1.16-.83-2.24-1.73-3.25-2.67-.81,2.21-1.25,4.55-1.26,6.97"/>
      <path d="M670.46,30.6c.56-1.16,1.18-2.27,1.85-3.32-1.43.44-2.8.97-4.11,1.59.62.79,1.29,1.56,2.01,2.3.09-.19.17-.37.26-.56"/>
      <path d="M687.34,47.86c-.29,1.53-1.87,1.76-2.22,1.77-2.55.13-2.64-1.61-1.78-2.14,1.15-.71,4.02-.31,4.02-.31,0,.1.03.36-.01.68M665.96,45.5h-5.05c.26-1.34,1.17-2.22,2.56-2.22s2.29.9,2.49,2.22M694.13,45.86v-.05c0-2.08,1.8-3.72,4.09-3.72.12,0,.24,0,.36.01v-2.5c-.11,0-.22,0-.33,0-3.99,0-7.1,2.12-7.75,5.1-.28-2.36-1.9-3.74-5.21-3.74-.15,0-.66,0-.8,0v2.53c.65,0,1.55.12,1.94.33.58.31.89.83.9,1.53-.8-.09-1.7-.16-2.49-.18-3.11-.08-4.69.92-5.06,2.54v-1.66c0-2.82-1.73-5.03-5.38-5.03-3.36,0-5.09,1.86-5.35,4.35-.42-2.46-2.17-4.47-5.57-4.47s-5.84,2.46-5.84,5.44v.04c0,.08,0,.16.01.24-.68-1.14-2.21-1.76-4.45-2.24-2.65-.56-3.02-.84-3.02-1.67v-.04c0-.62.68-1.11,1.97-1.11.66,0,1.52.18,2.12.4v-2.67c-.56-.1-1.42-.21-2.08-.21-3.13,0-5.36,1.53-5.36,3.84v.03c0,2.53,1.99,3.24,5.08,3.89,2.56.55,2.8.91,2.8,1.62v.04c0,.75-.83,1.2-2.21,1.2-1.75,0-2.91-.6-4.29-1.55l-1.99,1.98c1.84,1.36,3.9,2.04,6.22,2.04,3.22,0,5.5-1.35,5.61-3.76.86,2.05,3.04,3.35,5.76,3.35.1,0,.43-.01.53-.02v-2.38c-.08,0-.4.02-.49.02-1.5,0-2.56-.7-2.89-2.04h8.05v4.23h3.38v-5.73c.06-1.05.47-2.28,2-2.28s1.97,1.24,2.03,2.28v5.73h3.35v-2.3c.4,1.58,2.03,2.43,3.96,2.43,1.63,0,2.76-.53,3.57-1.33v1.2h3.24v-4.36c.75,2.83,3.83,4.89,7.64,4.89.13,0,.26,0,.38,0v-2.5c-.06,0-.12,0-.18,0-2.47,0-4.26-1.58-4.26-3.76"/>
    </g>
    <g>
      <circle class="cls-5" cx="562.66" cy="25.2" r="6.6"/>
      <g>
        <circle class="cls-1" cx="559.47" cy="25.2" r=".9"/>
        <circle class="cls-1" cx="562.66" cy="25.2" r=".9"/>
        <circle class="cls-1" cx="565.84" cy="25.2" r=".9"/>
      </g>
    </g>
  </g>
</svg>