<?xml version="1.0" encoding="UTF-8"?>
<svg id="Camada_1" data-name="Camada 1" xmlns="http://www.w3.org/2000/svg" xmlns:xlink="http://www.w3.org/1999/xlink" viewBox="0 0 1024 152">
  <defs>
    <style>
      .cls-1 {
        fill: #fff;
      }

      .cls-2 {
        fill: none;
      }

      .cls-3 {
        font-family: Poppins-Regular, Poppins;
        font-size: 24.61px;
      }

      .cls-4 {
        fill: #fb1366;
      }

      .cls-5 {
        fill: #f78b1f;
      }

      .cls-6 {
        fill: #e7316a;
      }

      .cls-7 {
        fill: #34efda;
      }

      .cls-8 {
        font-family: Poppins-Bold, Poppins;
        font-size: 41.01px;
        font-weight: 700;
      }

      .cls-9 {
        clip-path: url(#clippath);
      }
    </style>
    <clipPath id="clippath">
      <rect class="cls-2" y="0" width="1024" height="152"/>
    </clipPath>
  </defs>
  <g class="cls-9">
    <rect class="cls-7" x="-1.73" y="-1.55" width="1028.35" height="155.02"/>
    <path class="cls-4" d="M89.93,128.79c6.19-4.01,9.35-11.26,9.16-21-.24-12.26-3.56-27.09-8.82-41.27,5.86.66,11.48.51,16.34-.72,5.88-1.49,10.08-4.42,12.49-8.71,5.46-9.7.63-30.12-14.77-62.41-12.13-25.44-27.54-50.96-33.3-60.27,6.24.32,18.13.4,29.43-2.47,15.8-4.01,25.05-12.62,26.74-24.91,2.18-15.8-7.43-29.31-27.79-39.12-14.95-7.2-30.24-9.86-30.89-9.97-1.19-.2-2.33.6-2.53,1.79-.21,1.2.6,2.33,1.79,2.53.59.1,58.63,10.41,55.18,43.25-.03.3-.07.61-.11.91-1.45,10.52-9.35,17.68-23.47,21.26-15.18,3.85-32.09,2.05-32.26,2.03-.84-.09-1.66.3-2.1,1.02-.45.72-.44,1.63.01,2.34.2.32,20.31,31.97,35.34,63.49,18.1,37.97,18.1,52.7,14.9,58.37-1.8,3.2-5.08,5.42-9.75,6.61-4.72,1.2-10.66,1.25-17.06.34-4.45-11-10.03-21.39-16.17-29.61-7.52-10.06-16.88-16.05-25.04-16.01-4.69.02-8.65,2.04-11.46,5.86-1.94,2.63-2.59,5.68-1.95,9.06,1.61,8.44,11.31,17.17,19.85,22.53,8.43,5.29,20.2,10.01,31.62,12.08,5.57,14.37,9.13,29.61,9.37,42.08.16,8.14-2.31,14.09-7.16,17.23-6.99,4.53-18.69,3.32-32.92-3.41-22.11-10.45-47.78-32.73-73.71-63.51l-.63,6.01c25.44,29.63,50.61,51.14,72.46,61.47,15.66,7.4,28.87,8.51,37.18,3.12ZM56.04,50c-9.75-6.12-16.76-13.82-17.87-19.63-.41-2.16-.03-4.01,1.17-5.64,1.98-2.69,4.65-4.06,7.94-4.07,6.68-.03,14.92,5.44,21.51,14.25,5.46,7.31,10.46,16.39,14.58,26.07-9.29-1.99-19.1-5.81-27.33-10.97Z"/>
    <g>
      <path class="cls-5" d="M60.89,126.69c-1.4,1.11-2.24,2.47-2.21,3.55.02.53.25.96.7,1.27.27.19.57.24.92.16.94-.21,2.15-1.38,3.1-2.99.8-1.36,1.37-2.97,1.65-4.48-1.55.71-3,1.57-4.15,2.49Z"/>
      <g>
        <path class="cls-5" d="M64.01,129.04c-.83,1.41-2.2,3.02-3.55,3.32-.54.12-1.04.03-1.48-.27-.63-.44-.98-1.07-1-1.83-.04-1.32.88-2.87,2.47-4.13,1.3-1.03,2.96-1.99,4.72-2.76.12-1.04.08-2-.14-2.76-.21-.75-.59-1.27-1.12-1.55-.93-.49-3.32-.42-9.39,2.7-5.03,2.59-10.07,6-10.12,6.03-.11.08-.26.08-.38.01-.12-.07-.19-.2-.18-.34,0-.03.21-2.78-.48-5.22-.51-1.8-1.37-2.95-2.56-3.45-.04.09-.08.18-.11.27-2.94,7.29.59,15.58,7.87,18.52,7.29,2.94,15.58-.59,18.52-7.87.89-2.2,1.18-4.48.97-6.68-.75.24-1.51.52-2.25.83-.28,1.86-.99,3.79-1.8,5.18Z"/>
        <path class="cls-5" d="M44.06,122.05c.52,1.82.56,3.74.54,4.76,1.48-.98,5.54-3.6,9.6-5.68,5.16-2.65,8.44-3.53,10.04-2.69.71.37,1.2,1.04,1.47,1.98.22.78.27,1.69.2,2.64.68-.28,1.38-.52,2.07-.74-.72-4.83-3.9-9.16-8.76-11.12-6.98-2.81-14.87.3-18.11,6.96,1.37.58,2.38,1.91,2.95,3.9Z"/>
        <path class="cls-7" d="M65.91,123.06c.08-.95.03-1.86-.2-2.64-.27-.94-.77-1.61-1.47-1.98-1.6-.84-4.88.04-10.04,2.69-4.06,2.09-8.12,4.71-9.6,5.68.02-1.01-.02-2.94-.54-4.76-.57-1.99-1.58-3.32-2.95-3.9-.1.21-.2.43-.3.65,1.19.49,2.04,1.65,2.56,3.45.7,2.44.49,5.19.48,5.22-.01.14.06.27.18.34.12.07.27.06.38-.01.05-.03,5.08-3.44,10.12-6.03,6.06-3.12,8.45-3.19,9.39-2.7.53.28.9.8,1.12,1.55.22.76.25,1.72.14,2.76-1.76.77-3.42,1.73-4.72,2.76-1.59,1.27-2.52,2.81-2.47,4.13.03.76.37,1.39,1,1.83.44.3.93.39,1.48.27,1.36-.3,2.73-1.91,3.55-3.32.82-1.39,1.52-3.32,1.8-5.18.74-.31,1.5-.59,2.25-.83-.02-.24-.05-.48-.09-.71-.69.22-1.38.46-2.07.74ZM63.4,128.68c-.94,1.61-2.16,2.78-3.1,2.99-.35.08-.65.02-.92-.16-.45-.31-.68-.73-.7-1.27-.04-1.08.81-2.44,2.21-3.55,1.16-.92,2.6-1.77,4.15-2.49-.28,1.51-.85,3.12-1.65,4.48Z"/>
      </g>
    </g>
    <path class="cls-1" d="M842.6,264.18c8.03-6.91,11.12-17.86,8.95-31.68-2.73-17.4-10.35-37.87-20.6-57.04,8.47-.21,16.44-1.5,23.13-4.21,8.07-3.27,13.49-8.26,16.08-14.83,5.88-14.88-4.97-43-33.18-85.98-22.23-33.86-49.14-67.19-59.15-79.33,8.94-.76,25.89-2.96,41.42-9.24,21.71-8.78,33.2-22.85,33.22-40.68.02-22.92-16.29-40.29-47.19-50.28-22.68-7.34-44.98-8.14-45.92-8.18-1.74-.06-3.2,1.31-3.25,3.05-.06,1.74,1.31,3.2,3.05,3.26.86.03,85.5,3.4,86.99,50.82.01.44.02.88.02,1.32-.02,15.27-9.87,26.99-29.28,34.84-20.86,8.44-45.29,9.17-45.54,9.17-1.21.03-2.3.76-2.8,1.86-.5,1.11-.31,2.4.47,3.33.35.41,35.14,41.56,62.68,83.51,33.17,50.53,36.03,71.51,32.59,80.2-1.94,4.9-6.17,8.71-12.59,11.3-6.49,2.63-14.93,3.86-24.22,3.81-8.48-14.8-18.44-28.51-28.78-39.01-12.66-12.86-27.15-19.56-38.77-17.92-6.67.94-11.92,4.6-15.17,10.58-2.25,4.13-2.58,8.6-1.01,13.28,3.93,11.7,19.44,22.25,32.64,28.21,13.03,5.89,30.7,10.31,47.37,11.04,10.73,19.37,18.76,40.38,21.54,58.09,1.81,11.55-.55,20.51-6.84,25.92-9.08,7.81-25.96,8.36-47.54,1.56-33.52-10.57-74.4-37.29-117.31-76.07l.27,8.68c41.99,37.23,82.01,62.96,115.14,73.4,23.74,7.48,42.76,6.49,53.55-2.8ZM779.01,158.6c-15.07-6.81-26.56-16.42-29.26-24.48-1.01-3-.82-5.7.57-8.26,2.29-4.22,5.83-6.69,10.51-7.34,9.5-1.34,22.3,4.83,33.4,16.1,9.2,9.34,18.08,21.3,25.83,34.28-13.61-1.02-28.32-4.55-41.05-10.3Z"/>
    <g>
      <path d="M937.35,100.07c-.21-.02-.4-.03-.58-.03-2.95,0-4.97,1.15-4.97,3.23s2.04,3.54,4.97,3.54c.18,0,.36,0,.58-.03v2.65h-.01c-.18.01-.37.02-.56.02-3.7,0-7.62-1.28-8.66-4.45v4.45h-4.01l-6.92-7.68v7.68h-5.84c-4.29-.02-8.85-1.76-8.85-6.18,0-3.85,4-5.63,8.04-5.85v2.66c-2.46.21-4.09,1.32-4.09,3.19,0,2.06,2.01,3.52,4.91,3.54h1.86v-9.41c2.17,0,4.36.77,6.18,2.78,1.75,1.94,4.8,5.32,4.8,5.32v-8.1h3.92v4.26c1.04-2.97,4.96-4.26,8.66-4.26.19,0,.39.01.57.02v2.65Z"/>
      <path d="M967.66,103.42h-4.72c.25-1.22,1.09-2.01,2.39-2.01s2.14.81,2.33,2.01M981.77,104.13c0-1.6,1.67-2.89,3.73-2.89.25,0,.5.02.74.06v-2.02c-.44-.06-.92-.09-1.43-.09-3.56,0-6.24,2.13-6.24,4.98,0,.21.02.41.05.61-.51-.9-1.67-1.36-3.34-1.71-2.1-.43-2.39-.61-2.35-1.07.04-.44.74-.84,1.8-.84.67,0,1.57.16,2.37.53v-2.12c-.77-.24-1.62-.4-2.53-.4-2.65,0-4.42,1.27-4.56,3.01,0,.03,0,.06,0,.09-.63-1.74-2.11-3.06-4.71-3.06-3.09,0-5.21,2.26-5.21,5.01,0,.15.03.28.04.42-.5-1.26-1.92-1.9-4.13-2.39-2.36-.52-2.95-.77-2.95-1.53v-.03c0-.57.61-1.02,1.76-1.02s2.08.42,3.27,1.12v-2.76c-1.03-.41-1.95-.63-3.23-.63-2.8,0-4.79,1.4-4.79,3.51v.03c0,2.32,1.78,2.97,4.53,3.56,2.29.5,2.76.83,2.76,1.48v.03c0,.68-.74,1.1-1.97,1.1-1.56,0-2.95-.61-4.18-1.48l-1.78,1.82c1.64,1.25,3.83,1.92,5.9,1.92,2.95,0,5.02-1.29,5.02-3.6.62,2.03,2.44,3.37,4.94,3.37.47,0,1.15-.02,2.27-.29v-2.1c-1.04.3-1.49.33-2.1.3-1.22-.06-2.22-.75-2.51-1.96h7.39c.02-.25.04-.41.04-.67v-.03c0-.28-.03-.56-.06-.83.54.81,1.78,1.14,3.5,1.49,2.06.42,2.17.73,2.17,1.22,0,.43-.55.91-1.76.87-1.25-.04-2.71-.41-3.84-1.05v2.43c1.18.53,2.67.86,3.83.86,2.78,0,4.69-1.63,4.69-3.39,0-.07-.01-.12-.02-.19.48,1.19,1.46,2.09,2.58,2.64,1.1.53,2.27.7,3.23.71.57,0,1.06-.04,1.53-.11v-2.06c-.24.04-.48.06-.74.06-2.06,0-3.73-1.3-3.73-2.89"/>
      <path d="M974.38,43.93c-4.26-2.93-9.39-5.24-15.03-6.62-1.39-.33-2.8-.64-4.25-.85-.05,0-.11-.01-.17-.02-2.06,1.52-3.95,3.2-5.66,5,1.89-.28,3.82-.45,5.79-.52,6.88-.25,13.42.87,19.32,3.02"/>
      <path d="M947.52,57.68c2.67-1.98,5.6-3.74,8.76-5.23,7.78-3.67,15.93-5.23,23.62-4.89-6.62-2.92-14.22-4.46-22.25-4.17-3.96.15-7.78.73-11.4,1.69-1.81,2.43-3.3,5.04-4.43,7.78,1.75,1.72,3.65,3.34,5.7,4.83"/>
      <path d="M939.3,65.33c2.11-2.48,4.53-4.78,7.22-6.87-1.86-1.33-3.59-2.76-5.2-4.28-1.29,3.54-2,7.28-2.02,11.15"/>
      <path d="M941.28,50.99c.89-1.86,1.88-3.63,2.95-5.32-2.28.7-4.49,1.54-6.58,2.54.99,1.27,2.07,2.49,3.21,3.68.14-.3.27-.6.42-.9"/>
      <path d="M968.27,78.6c-.47,2.44-2.99,2.81-3.56,2.84-4.08.22-4.22-2.57-2.85-3.42,1.84-1.14,6.42-.5,6.42-.5,0,.17.04.58-.02,1.08M934.09,74.82h-8.07c.42-2.15,1.87-3.55,4.09-3.55s3.66,1.43,3.98,3.55M979.13,75.4v-.08c0-3.33,2.87-5.94,6.53-5.94.2,0,.39,0,.57.02v-4c-.17,0-.35,0-.52,0-6.37,0-11.36,3.4-12.39,8.16-.44-3.78-3.04-5.98-8.34-5.98-.24,0-1.06,0-1.28,0v4.04c1.04,0,2.47.19,3.11.52.94.49,1.42,1.32,1.44,2.44-1.28-.15-2.72-.25-3.98-.28-4.98-.13-7.5,1.47-8.1,4.06v-2.65c0-4.52-2.76-8.04-8.6-8.04-5.37,0-8.13,2.98-8.55,6.96-.67-3.93-3.47-7.15-8.91-7.15s-9.34,3.93-9.34,8.69v.06c0,.13.01.26.02.39-1.09-1.82-3.54-2.81-7.12-3.59-4.23-.9-4.83-1.34-4.83-2.68v-.06c0-.99,1.09-1.77,3.15-1.77,1.05,0,2.43.29,3.39.64v-4.27c-.9-.15-2.28-.33-3.32-.33-5.01,0-8.57,2.45-8.57,6.15v.05c0,4.04,3.18,5.18,8.12,6.23,4.1.87,4.48,1.46,4.48,2.59v.06c0,1.19-1.33,1.92-3.54,1.92-2.8,0-4.65-.96-6.86-2.47l-3.19,3.17c2.94,2.18,6.23,3.26,9.94,3.26,5.15,0,8.79-2.16,8.98-6.01,1.38,3.28,4.86,5.36,9.21,5.36.16,0,.69-.02.85-.03v-3.81c-.14,0-.64.03-.79.03-2.4,0-4.09-1.12-4.62-3.27h12.87v6.76h5.41v-9.17c.1-1.67.75-3.65,3.2-3.65s3.15,1.98,3.24,3.65v9.17h5.36v-3.67c.63,2.53,3.24,3.89,6.33,3.89,2.61,0,4.41-.84,5.71-2.12v1.93h5.18v-6.97c1.19,4.52,6.13,7.82,12.22,7.82.21,0,.41,0,.61,0v-3.99c-.1,0-.19,0-.29,0-3.95,0-6.82-2.53-6.82-6.01"/>
    </g>
    <g>
      <circle class="cls-6" cx="814.97" cy="45.67" r="10.56"/>
      <g>
        <circle class="cls-1" cx="809.88" cy="45.67" r="1.43"/>
        <circle class="cls-1" cx="814.97" cy="45.67" r="1.43"/>
        <circle class="cls-1" cx="820.06" cy="45.67" r="1.43"/>
      </g>
    </g>
    <rect class="cls-2" y="0" width="1024" height="152"/>
    <g>
      <text class="cls-3" transform="translate(172.87 119.24)"><tspan x="0" y="0">nas Unidades do Senac</tspan></text>
      <text class="cls-3" transform="translate(174.59 45.76)"><tspan x="0" y="0">Pesquisa Nacional de</tspan></text>
      <text class="cls-8" transform="translate(173.34 84.74)"><tspan x="0" y="0">Percepção sobre o Clima</tspan></text>
    </g>
  </g>
</svg>